#usda 1.0
(
    defaultPrim = "Suzanne"
    startTimeCode = 1
    endTimeCode   = 10
    framesPerSecond = 24
    timeCodesPerSecond = 24
    upAxis = "Z"
    metersPerUnit = 0.01
    doc = """Asset: Suzanne — exported from Blender"""
)


def Scope "Suzanne"
{
    def Scope "Materials"
    {
        def Material "Material_001"
        {
            token outputs:surface.connect = </Suzanne/Materials/Material_001/Shader.outputs:surface>

            def Shader "Shader"
            {
                uniform token info:id = "UsdPreviewSurface"
                color3f inputs:diffuseColor = (0.0000, 0.0392, 0.8000)
                float inputs:metallic = 0.0000
                float inputs:roughness = 0.5000
                float inputs:opacity = 1.0000
                float inputs:ior = 1.5000
                token outputs:surface
            }
        }
        def Material "Material_002"
        {
            token outputs:surface.connect = </Suzanne/Materials/Material_002/Shader.outputs:surface>

            def Shader "Shader"
            {
                uniform token info:id = "UsdPreviewSurface"
                color3f inputs:diffuseColor = (0.0578, 0.8000, 0.0000)
                float inputs:metallic = 0.0000
                float inputs:roughness = 0.5000
                float inputs:opacity = 1.0000
                float inputs:ior = 1.5000
                token outputs:surface
            }
        }
        def Material "Material_003"
        {
            token outputs:surface.connect = </Suzanne/Materials/Material_003/Shader.outputs:surface>

            def Shader "Shader"
            {
                uniform token info:id = "UsdPreviewSurface"
                color3f inputs:diffuseColor = (0.8000, 0.0841, 0.0000)
                float inputs:metallic = 0.0000
                float inputs:roughness = 0.5000
                float inputs:opacity = 1.0000
                float inputs:ior = 1.5000
                token outputs:surface
            }
        }
    }

    def Mesh "SuzanneMdl"
    (
        kind = "component"
        prepend apiSchemas = ["MaterialBindingAPI"]
    )
    {
        matrix4d xformOp:transform = ((1.000000, 0.000000, 0.000000, 0.000000), (0.000000, 0.973635, -0.228113, 0.000000), (-0.000000, 0.228113, 0.973635, 0.000000), (-0.000000, -0.252019, 3.375009, 1.000000))
        uniform token[] xformOpOrder = ["xformOp:transform"]

        int[] faceVertexCounts = [4, 4, 4, 4, 4, 4, 4, 4, 4, 4, 4, 4, 4, 4, 4, 4, 4, 4, 4, 4, 4, 4, 4, 4, 4, 4, 4, 4, 4, 4, 4, 4, 4, 4, 4, 4, 4, 4, 4, 4, 4, 4, 4, 4, 4, 4, 4, 4, 3, 3, 3, 3, 3, 3, 3, 3, 3, 3, 3, 3, 3, 3, 3, 3, 4, 4, 4, 4, 4, 4, 4, 4, 4, 4, 4, 4, 4, 4, 4, 4, 4, 4, 4, 4, 4, 4, 4, 4, 4, 4, 4, 4, 4, 4, 4, 4, 4, 4, 4, 4, 4, 4, 4, 4, 4, 4, 4, 4, 4, 4, 4, 4, 4, 4, 4, 4, 4, 4, 4, 4, 4, 4, 4, 4, 4, 4, 4, 4, 4, 4, 4, 4, 4, 4, 4, 4, 4, 4, 4, 4, 4, 4, 4, 4, 4, 4, 4, 4, 4, 4, 4, 4, 4, 4, 4, 4, 4, 4, 4, 4, 4, 4, 4, 4, 4, 4, 4, 4, 4, 4, 4, 4, 4, 4, 4, 4, 4, 4, 4, 4, 4, 4, 4, 4, 4, 4, 4, 4, 4, 4, 4, 4, 3, 3, 4, 4, 4, 4, 4, 4, 4, 4, 4, 4, 4, 4, 4, 4, 4, 4, 4, 4, 4, 4, 4, 4, 4, 4, 4, 4, 4, 4, 4, 4, 4, 4, 4, 4, 4, 4, 4, 4, 4, 4, 4, 4, 4, 4, 4, 4, 4, 4, 4, 4, 4, 4, 4, 4, 4, 4, 4, 4, 4, 4, 4, 4, 4, 4, 4, 4, 4, 4, 4, 4, 4, 4, 4, 4, 4, 4, 4, 4, 4, 4, 4, 4, 4, 4, 4, 4, 4, 4, 4, 4, 4, 4, 4, 4, 4, 4, 4, 4, 4, 4, 4, 4, 4, 4, 4, 4, 4, 4, 4, 4, 4, 4, 4, 4, 4, 4, 4, 4, 4, 4, 4, 4, 4, 4, 4, 4, 4, 4, 4, 4, 4, 4, 4, 4, 4, 4, 4, 4, 4, 4, 4, 4, 4, 4, 4, 4, 3, 3, 4, 4, 4, 4, 4, 4, 4, 4, 4, 4, 4, 4, 4, 4, 4, 4, 3, 3, 3, 3, 4, 4, 4, 4, 4, 4, 4, 4, 3, 3, 4, 4, 4, 4, 4, 4, 4, 4, 4, 4, 4, 4, 4, 4, 4, 4, 4, 4, 4, 4, 4, 4, 4, 4, 4, 4, 4, 4, 4, 4, 4, 4, 4, 4, 4, 4, 4, 4, 4, 4, 4, 4, 4, 4, 4, 4, 4, 4, 3, 3, 4, 4, 4, 4, 4, 4, 4, 4, 4, 4, 4, 4, 4, 4, 4, 4, 4, 4, 4, 4, 4, 4, 4, 4, 4, 4, 4, 4, 4, 4, 4, 4, 4, 4, 4, 4, 4, 4, 4, 4, 4, 4, 4, 4, 4, 4, 4, 4, 4, 4, 4, 4, 3, 3, 4, 4, 4, 4, 4, 4, 4, 4, 4, 4, 4, 4, 4, 4, 4, 4, 3, 3, 4, 4, 4, 4, 4, 4, 4, 4, 4, 4, 4, 4, 4, 4, 4, 4, 4, 4, 4, 4, 4, 4, 4, 4, 4, 4, 4, 4, 4, 4, 4, 4, 4, 4, 4, 4, 4, 4, 4, 4, 4, 4, 4, 4]
        int[] faceVertexIndices = [46, 0, 2, 44, 3, 1, 47, 45, 44, 2, 4, 42, 5, 3, 45, 43, 2, 8, 6, 4, 7, 9, 3, 5, 0, 10, 8, 2, 9, 11, 1, 3, 10, 12, 14, 8, 15, 13, 11, 9, 8, 14, 16, 6, 17, 15, 9, 7, 14, 20, 18, 16, 19, 21, 15, 17, 12, 22, 20, 14, 21, 23, 13, 15, 22, 24, 26, 20, 27, 25, 23, 21, 20, 26, 28, 18, 29, 27, 21, 19, 26, 32, 30, 28, 31, 33, 27, 29, 24, 34, 32, 26, 33, 35, 25, 27, 34, 36, 38, 32, 39, 37, 35, 33, 32, 38, 40, 30, 41, 39, 33, 31, 38, 44, 42, 40, 43, 45, 39, 41, 36, 46, 44, 38, 45, 47, 37, 39, 46, 36, 50, 48, 51, 37, 47, 49, 36, 34, 52, 50, 53, 35, 37, 51, 34, 24, 54, 52, 55, 25, 35, 53, 24, 22, 56, 54, 57, 23, 25, 55, 22, 12, 58, 56, 59, 13, 23, 57, 12, 10, 62, 58, 63, 11, 13, 59, 10, 0, 64, 62, 65, 1, 11, 63, 0, 46, 48, 64, 49, 47, 1, 65, 60, 64, 48, 49, 65, 61, 62, 64, 60, 61, 65, 63, 60, 58, 62, 63, 59, 61, 60, 56, 58, 59, 57, 61, 60, 54, 56, 57, 55, 61, 60, 52, 54, 55, 53, 61, 60, 50, 52, 53, 51, 61, 60, 48, 50, 51, 49, 61, 88, 173, 175, 90, 175, 174, 89, 90, 86, 171, 173, 88, 174, 172, 87, 89, 84, 169, 171, 86, 172, 170, 85, 87, 82, 167, 169, 84, 170, 168, 83, 85, 80, 165, 167, 82, 168, 166, 81, 83, 78, 91, 145, 163, 146, 92, 79, 164, 91, 93, 147, 145, 148, 94, 92, 146, 93, 95, 149, 147, 150, 96, 94, 148, 95, 97, 151, 149, 152, 98, 96, 150, 97, 99, 153, 151, 154, 100, 98, 152, 99, 101, 155, 153, 156, 102, 100, 154, 101, 103, 157, 155, 158, 104, 102, 156, 103, 105, 159, 157, 160, 106, 104, 158, 105, 107, 161, 159, 162, 108, 106, 160, 107, 66, 67, 161, 67, 66, 108, 162, 109, 127, 159, 161, 160, 128, 110, 162, 127, 178, 157, 159, 158, 179, 128, 160, 125, 155, 157, 178, 158, 156, 126, 179, 123, 153, 155, 125, 156, 154, 124, 126, 121, 151, 153, 123, 154, 152, 122, 124, 119, 149, 151, 121, 152, 150, 120, 122, 117, 147, 149, 119, 150, 148, 118, 120, 115, 145, 147, 117, 148, 146, 116, 118, 113, 163, 145, 115, 146, 164, 114, 116, 113, 180, 176, 163, 176, 181, 114, 164, 109, 161, 67, 111, 67, 162, 110, 112, 111, 67, 177, 182, 177, 67, 112, 183, 176, 180, 182, 177, 183, 181, 176, 177, 134, 136, 175, 173, 175, 136, 135, 174, 132, 134, 173, 171, 174, 135, 133, 172, 130, 132, 171, 169, 172, 133, 131, 170, 165, 186, 184, 167, 185, 187, 166, 168, 130, 169, 167, 184, 168, 170, 131, 185, 143, 189, 188, 186, 188, 189, 144, 187, 184, 186, 188, 68, 188, 187, 185, 68, 129, 130, 184, 68, 185, 131, 129, 68, 141, 192, 190, 143, 191, 193, 142, 144, 139, 194, 192, 141, 193, 195, 140, 142, 138, 196, 194, 139, 195, 197, 138, 140, 137, 70, 196, 138, 197, 70, 137, 138, 189, 143, 190, 69, 191, 144, 189, 69, 69, 190, 205, 207, 206, 191, 69, 207, 70, 198, 199, 196, 200, 198, 70, 197, 196, 199, 201, 194, 202, 200, 197, 195, 194, 201, 203, 192, 204, 202, 195, 193, 192, 203, 205, 190, 206, 204, 193, 191, 198, 203, 201, 199, 202, 204, 198, 200, 198, 207, 205, 203, 206, 207, 198, 204, 138, 139, 163, 176, 164, 140, 138, 176, 139, 141, 210, 163, 211, 142, 140, 164, 141, 143, 212, 210, 213, 144, 142, 211, 143, 186, 165, 212, 166, 187, 144, 213, 80, 208, 212, 165, 213, 209, 81, 166, 208, 214, 210, 212, 211, 215, 209, 213, 78, 163, 210, 214, 211, 164, 79, 215, 130, 129, 71, 221, 71, 129, 131, 222, 132, 130, 221, 219, 222, 131, 133, 220, 134, 132, 219, 217, 220, 133, 135, 218, 136, 134, 217, 216, 218, 135, 136, 216, 216, 217, 228, 230, 229, 218, 216, 230, 217, 219, 226, 228, 227, 220, 218, 229, 219, 221, 224, 226, 225, 222, 220, 227, 221, 71, 223, 224, 223, 71, 222, 225, 223, 230, 228, 224, 229, 230, 223, 225, 224, 228, 226, 227, 229, 225, 182, 180, 233, 231, 234, 181, 183, 232, 111, 182, 231, 253, 232, 183, 112, 254, 109, 111, 253, 255, 254, 112, 110, 256, 180, 113, 251, 233, 252, 114, 181, 234, 113, 115, 249, 251, 250, 116, 114, 252, 115, 117, 247, 249, 248, 118, 116, 250, 117, 119, 245, 247, 246, 120, 118, 248, 119, 121, 243, 245, 244, 122, 120, 246, 121, 123, 241, 243, 242, 124, 122, 244, 123, 125, 239, 241, 240, 126, 124, 242, 125, 178, 235, 239, 236, 179, 126, 240, 178, 127, 237, 235, 238, 128, 179, 236, 127, 109, 255, 237, 256, 110, 128, 238, 237, 255, 257, 275, 258, 256, 238, 276, 235, 237, 275, 277, 276, 238, 236, 278, 239, 235, 277, 273, 278, 236, 240, 274, 241, 239, 273, 271, 274, 240, 242, 272, 243, 241, 271, 269, 272, 242, 244, 270, 245, 243, 269, 267, 270, 244, 246, 268, 247, 245, 267, 265, 268, 246, 248, 266, 249, 247, 265, 263, 266, 248, 250, 264, 251, 249, 263, 261, 264, 250, 252, 262, 233, 251, 261, 279, 262, 252, 234, 280, 255, 253, 259, 257, 260, 254, 256, 258, 253, 231, 281, 259, 282, 232, 254, 260, 231, 233, 279, 281, 280, 234, 232, 282, 66, 107, 283, 72, 284, 108, 66, 72, 107, 105, 285, 283, 286, 106, 108, 284, 105, 103, 287, 285, 288, 104, 106, 286, 103, 101, 289, 287, 290, 102, 104, 288, 101, 99, 291, 289, 292, 100, 102, 290, 99, 97, 293, 291, 294, 98, 100, 292, 97, 95, 295, 293, 296, 96, 98, 294, 95, 93, 297, 295, 298, 94, 96, 296, 93, 91, 299, 297, 300, 92, 94, 298, 307, 308, 327, 337, 328, 308, 307, 338, 306, 307, 337, 335, 338, 307, 306, 336, 305, 306, 335, 339, 336, 306, 305, 340, 88, 90, 305, 339, 305, 90, 89, 340, 86, 88, 339, 333, 340, 89, 87, 334, 84, 86, 333, 329, 334, 87, 85, 330, 82, 84, 329, 331, 330, 85, 83, 332, 329, 335, 337, 331, 338, 336, 330, 332, 329, 333, 339, 335, 340, 334, 330, 336, 325, 331, 337, 327, 338, 332, 326, 328, 80, 82, 331, 325, 332, 83, 81, 326, 208, 341, 343, 214, 344, 342, 209, 215, 80, 325, 341, 208, 342, 326, 81, 209, 78, 214, 343, 345, 344, 215, 79, 346, 78, 345, 299, 91, 300, 346, 79, 92, 76, 323, 351, 303, 352, 324, 76, 303, 303, 351, 349, 77, 350, 352, 303, 77, 77, 349, 347, 304, 348, 350, 77, 304, 304, 347, 327, 308, 328, 348, 304, 308, 325, 327, 347, 341, 348, 328, 326, 342, 295, 297, 317, 309, 318, 298, 296, 310, 75, 315, 323, 76, 324, 316, 75, 76, 301, 357, 355, 302, 356, 358, 301, 302, 302, 355, 353, 74, 354, 356, 302, 74, 74, 353, 315, 75, 316, 354, 74, 75, 291, 293, 361, 363, 362, 294, 292, 364, 363, 361, 367, 365, 368, 362, 364, 366, 365, 367, 369, 371, 370, 368, 366, 372, 371, 369, 375, 373, 376, 370, 372, 374, 313, 377, 373, 375, 374, 378, 314, 376, 315, 353, 373, 377, 374, 354, 316, 378, 353, 355, 371, 373, 372, 356, 354, 374, 355, 357, 365, 371, 366, 358, 356, 372, 357, 359, 363, 365, 364, 360, 358, 366, 289, 291, 363, 359, 364, 292, 290, 360, 73, 359, 357, 301, 358, 360, 73, 301, 283, 285, 287, 289, 288, 286, 284, 290, 283, 289, 359, 73, 360, 290, 284, 73, 72, 283, 73, 73, 284, 72, 293, 295, 309, 361, 310, 296, 294, 362, 309, 311, 367, 361, 368, 312, 310, 362, 311, 381, 369, 367, 370, 382, 312, 368, 313, 375, 369, 381, 370, 376, 314, 382, 347, 349, 385, 383, 386, 350, 348, 384, 317, 383, 385, 319, 386, 384, 318, 320, 297, 299, 383, 317, 384, 300, 298, 318, 299, 343, 341, 383, 342, 344, 300, 384, 341, 347, 383, 384, 348, 342, 299, 345, 343, 344, 346, 300, 313, 321, 379, 377, 380, 322, 314, 378, 315, 377, 379, 323, 380, 378, 316, 324, 319, 385, 379, 321, 380, 386, 320, 322, 349, 351, 379, 385, 380, 352, 350, 386, 323, 379, 351, 352, 380, 324, 399, 387, 413, 401, 414, 388, 400, 402, 399, 401, 403, 397, 404, 402, 400, 398, 397, 403, 405, 395, 406, 404, 398, 396, 395, 405, 407, 393, 408, 406, 396, 394, 393, 407, 409, 391, 410, 408, 394, 392, 391, 409, 411, 389, 412, 410, 392, 390, 409, 419, 417, 411, 418, 420, 410, 412, 407, 421, 419, 409, 420, 422, 408, 410, 405, 423, 421, 407, 422, 424, 406, 408, 403, 425, 423, 405, 424, 426, 404, 406, 401, 427, 425, 403, 426, 428, 402, 404, 401, 413, 415, 427, 416, 414, 402, 428, 317, 319, 443, 441, 444, 320, 318, 442, 319, 389, 411, 443, 412, 390, 320, 444, 309, 317, 441, 311, 442, 318, 310, 312, 381, 429, 413, 387, 414, 430, 382, 388, 411, 417, 439, 443, 440, 418, 412, 444, 437, 445, 443, 439, 444, 446, 438, 440, 433, 445, 437, 435, 438, 446, 434, 436, 431, 447, 445, 433, 446, 448, 432, 434, 429, 447, 431, 449, 432, 448, 430, 450, 413, 429, 449, 415, 450, 430, 414, 416, 311, 447, 429, 381, 430, 448, 312, 382, 311, 441, 445, 447, 446, 442, 312, 448, 441, 443, 445, 446, 444, 442, 415, 449, 451, 475, 452, 450, 416, 476, 449, 431, 461, 451, 462, 432, 450, 452, 431, 433, 459, 461, 460, 434, 432, 462, 433, 435, 457, 459, 458, 436, 434, 460, 435, 437, 455, 457, 456, 438, 436, 458, 437, 439, 453, 455, 454, 440, 438, 456, 439, 417, 473, 453, 474, 418, 440, 454, 427, 415, 475, 463, 476, 416, 428, 464, 425, 427, 463, 465, 464, 428, 426, 466, 423, 425, 465, 467, 466, 426, 424, 468, 421, 423, 467, 469, 468, 424, 422, 470, 419, 421, 469, 471, 470, 422, 420, 472, 417, 419, 471, 473, 472, 420, 418, 474, 457, 455, 479, 477, 480, 456, 458, 478, 477, 479, 481, 483, 482, 480, 478, 484, 483, 481, 487, 485, 488, 482, 484, 486, 485, 487, 489, 491, 490, 488, 486, 492, 463, 475, 485, 491, 486, 476, 464, 492, 451, 483, 485, 475, 486, 484, 452, 476, 451, 461, 477, 483, 478, 462, 452, 484, 457, 477, 461, 459, 462, 478, 458, 460, 453, 473, 479, 455, 480, 474, 454, 456, 471, 481, 479, 473, 480, 482, 472, 474, 469, 487, 481, 471, 482, 488, 470, 472, 467, 489, 487, 469, 488, 490, 468, 470, 465, 491, 489, 467, 490, 492, 466, 468, 463, 491, 465, 466, 492, 464, 391, 389, 503, 501, 504, 390, 392, 502, 393, 391, 501, 499, 502, 392, 394, 500, 395, 393, 499, 497, 500, 394, 396, 498, 397, 395, 497, 495, 498, 396, 398, 496, 399, 397, 495, 493, 496, 398, 400, 494, 387, 399, 493, 505, 494, 400, 388, 506, 493, 501, 503, 505, 504, 502, 494, 506, 493, 495, 499, 501, 500, 496, 494, 502, 495, 497, 499, 500, 498, 496, 313, 381, 387, 505, 388, 382, 314, 506, 313, 505, 503, 321, 504, 506, 314, 322, 319, 321, 503, 389, 504, 322, 320, 390, 522, 508, 510, 523, 523, 510, 514, 531, 531, 514, 512, 539, 539, 512, 508, 522, 509, 513, 511, 507, 514, 510, 508, 512, 511, 546, 515, 507, 546, 545, 516, 515, 545, 544, 517, 516, 544, 543, 518, 517, 543, 542, 519, 518, 542, 541, 520, 519, 541, 540, 521, 520, 540, 539, 522, 521, 513, 538, 546, 511, 538, 537, 545, 546, 537, 536, 544, 545, 536, 535, 543, 544, 535, 534, 542, 543, 534, 533, 541, 542, 533, 532, 540, 541, 532, 531, 539, 540, 509, 530, 538, 513, 530, 529, 537, 538, 529, 528, 536, 537, 528, 527, 535, 536, 527, 526, 534, 535, 526, 525, 533, 534, 525, 524, 532, 533, 524, 523, 531, 532, 507, 515, 530, 509, 515, 516, 529, 530, 516, 517, 528, 529, 517, 518, 527, 528, 518, 519, 526, 527, 519, 520, 525, 526, 520, 521, 524, 525, 521, 522, 523, 524]
        point3f[] points = [(0.437500, -0.765625, 0.164062), (-0.437500, -0.765625, 0.164062), (0.500000, -0.687500, 0.093750), (-0.500000, -0.687500, 0.093750), (0.546875, -0.578125, 0.054688), (-0.546875, -0.578125, 0.054688), (0.351562, -0.617188, -0.023438), (-0.351562, -0.617188, -0.023438), (0.351562, -0.718750, 0.031250), (-0.351562, -0.718750, 0.031250), (0.351562, -0.781250, 0.132812), (-0.351562, -0.781250, 0.132812), (0.273438, -0.796875, 0.164062), (-0.273438, -0.796875, 0.164062), (0.203125, -0.742188, 0.093750), (-0.203125, -0.742188, 0.093750), (0.156250, -0.648438, 0.054688), (-0.156250, -0.648438, 0.054688), (0.078125, -0.656250, 0.242188), (-0.078125, -0.656250, 0.242188), (0.140625, -0.742188, 0.242188), (-0.140625, -0.742188, 0.242188), (0.242188, -0.796875, 0.242188), (-0.242188, -0.796875, 0.242188), (0.273438, -0.796875, 0.328125), (-0.273438, -0.796875, 0.328125), (0.203125, -0.742188, 0.390625), (-0.203125, -0.742188, 0.390625), (0.156250, -0.648438, 0.437500), (-0.156250, -0.648438, 0.437500), (0.351562, -0.617187, 0.515625), (-0.351562, -0.617187, 0.515625), (0.351562, -0.718750, 0.453125), (-0.351562, -0.718750, 0.453125), (0.351562, -0.781250, 0.359375), (-0.351562, -0.781250, 0.359375), (0.437500, -0.765625, 0.328125), (-0.437500, -0.765625, 0.328125), (0.500000, -0.687500, 0.390625), (-0.500000, -0.687500, 0.390625), (0.546875, -0.578125, 0.437500), (-0.546875, -0.578125, 0.437500), (0.625000, -0.562500, 0.242188), (-0.625000, -0.562500, 0.242188), (0.562500, -0.671875, 0.242188), (-0.562500, -0.671875, 0.242188), (0.468750, -0.757812, 0.242188), (-0.468750, -0.757812, 0.242188), (0.476562, -0.773438, 0.242188), (-0.476562, -0.773438, 0.242188), (0.445312, -0.781250, 0.335937), (-0.445312, -0.781250, 0.335937), (0.351562, -0.804688, 0.375000), (-0.351562, -0.804688, 0.375000), (0.265625, -0.820312, 0.335938), (-0.265625, -0.820312, 0.335938), (0.226562, -0.820312, 0.242188), (-0.226562, -0.820312, 0.242188), (0.265625, -0.820312, 0.156250), (-0.265625, -0.820312, 0.156250), (0.351562, -0.828125, 0.242187), (-0.351562, -0.828125, 0.242187), (0.351562, -0.804688, 0.117188), (-0.351562, -0.804688, 0.117188), (0.445312, -0.781250, 0.156250), (-0.445312, -0.781250, 0.156250), (-0.000000, -0.742188, 0.429688), (-0.000000, -0.820312, 0.351563), (-0.000000, -0.734375, -0.679687), (-0.000000, -0.781250, -0.320312), (-0.000000, -0.796875, -0.187500), (-0.000000, -0.718750, -0.773438), (-0.000000, -0.601562, 0.406250), (-0.000000, -0.570312, 0.570313), (-0.000000, 0.546875, 0.898437), (-0.000000, 0.851562, 0.562500), (-0.000000, 0.828125, 0.070312), (-0.000000, 0.351562, -0.382812), (0.203125, -0.562500, -0.187500), (-0.203125, -0.562500, -0.187500), (0.312500, -0.570312, -0.437500), (-0.312500, -0.570312, -0.437500), (0.351562, -0.570313, -0.695312), (-0.351562, -0.570313, -0.695312), (0.367188, -0.531250, -0.890625), (-0.367188, -0.531250, -0.890625), (0.328125, -0.523438, -0.945312), (-0.328125, -0.523438, -0.945312), (0.179688, -0.554688, -0.968750), (-0.179688, -0.554688, -0.968750), (-0.000000, -0.578125, -0.984375), (0.437500, -0.531250, -0.140625), (-0.437500, -0.531250, -0.140625), (0.632812, -0.539062, -0.039062), (-0.632812, -0.539062, -0.039062), (0.828125, -0.445312, 0.148438), (-0.828125, -0.445312, 0.148438), (0.859375, -0.593750, 0.429688), (-0.859375, -0.593750, 0.429688), (0.710938, -0.625000, 0.484375), (-0.710938, -0.625000, 0.484375), (0.492188, -0.687500, 0.601562), (-0.492188, -0.687500, 0.601562), (0.320312, -0.734375, 0.757812), (-0.320312, -0.734375, 0.757812), (0.156250, -0.757812, 0.718750), (-0.156250, -0.757812, 0.718750), (0.062500, -0.750000, 0.492187), (-0.062500, -0.750000, 0.492187), (0.164062, -0.773438, 0.414062), (-0.164062, -0.773438, 0.414062), (0.125000, -0.765625, 0.304688), (-0.125000, -0.765625, 0.304688), (0.203125, -0.742188, 0.093750), (-0.203125, -0.742188, 0.093750), (0.375000, -0.703125, 0.015625), (-0.375000, -0.703125, 0.015625), (0.492188, -0.671875, 0.062500), (-0.492188, -0.671875, 0.062500), (0.625000, -0.648438, 0.187500), (-0.625000, -0.648438, 0.187500), (0.640625, -0.648437, 0.296875), (-0.640625, -0.648437, 0.296875), (0.601562, -0.664062, 0.375000), (-0.601562, -0.664062, 0.375000), (0.429688, -0.718750, 0.437500), (-0.429688, -0.718750, 0.437500), (0.250000, -0.757813, 0.468750), (-0.250000, -0.757813, 0.468750), (-0.000000, -0.734375, -0.765625), (0.109375, -0.734375, -0.718750), (-0.109375, -0.734375, -0.718750), (0.117188, -0.710937, -0.835938), (-0.117188, -0.710937, -0.835938), (0.062500, -0.695312, -0.882813), (-0.062500, -0.695312, -0.882813), (-0.000000, -0.687500, -0.890625), (-0.000000, -0.750000, -0.195312), (-0.000000, -0.742188, -0.140625), (0.101562, -0.742188, -0.148438), (-0.101562, -0.742188, -0.148438), (0.125000, -0.750000, -0.226562), (-0.125000, -0.750000, -0.226562), (0.085938, -0.742188, -0.289062), (-0.085938, -0.742188, -0.289062), (0.398438, -0.671875, -0.046875), (-0.398438, -0.671875, -0.046875), (0.617188, -0.625000, 0.054688), (-0.617188, -0.625000, 0.054688), (0.726562, -0.601562, 0.203125), (-0.726562, -0.601562, 0.203125), (0.742188, -0.656250, 0.375000), (-0.742188, -0.656250, 0.375000), (0.687500, -0.726562, 0.414062), (-0.687500, -0.726562, 0.414062), (0.437500, -0.796875, 0.546875), (-0.437500, -0.796875, 0.546875), (0.312500, -0.835937, 0.640625), (-0.312500, -0.835937, 0.640625), (0.203125, -0.851562, 0.617188), (-0.203125, -0.851562, 0.617188), (0.101562, -0.843750, 0.429688), (-0.101562, -0.843750, 0.429688), (0.125000, -0.812500, -0.101562), (-0.125000, -0.812500, -0.101562), (0.210938, -0.710938, -0.445312), (-0.210938, -0.710938, -0.445312), (0.250000, -0.687500, -0.703125), (-0.250000, -0.687500, -0.703125), (0.265625, -0.664062, -0.820313), (-0.265625, -0.664062, -0.820313), (0.234375, -0.632812, -0.914062), (-0.234375, -0.632812, -0.914062), (0.164062, -0.632813, -0.929688), (-0.164062, -0.632813, -0.929688), (-0.000000, -0.640625, -0.945312), (-0.000000, -0.726562, 0.046875), (-0.000000, -0.765625, 0.210937), (0.328125, -0.742188, 0.476563), (-0.328125, -0.742188, 0.476563), (0.164062, -0.750000, 0.140625), (-0.164062, -0.750000, 0.140625), (0.132812, -0.757812, 0.210938), (-0.132812, -0.757812, 0.210938), (0.117188, -0.734375, -0.687500), (-0.117188, -0.734375, -0.687500), (0.078125, -0.750000, -0.445312), (-0.078125, -0.750000, -0.445312), (-0.000000, -0.750000, -0.445312), (-0.000000, -0.742188, -0.328125), (0.093750, -0.781250, -0.273438), (-0.093750, -0.781250, -0.273438), (0.132812, -0.796875, -0.226562), (-0.132812, -0.796875, -0.226562), (0.109375, -0.781250, -0.132813), (-0.109375, -0.781250, -0.132813), (0.039062, -0.781250, -0.125000), (-0.039062, -0.781250, -0.125000), (-0.000000, -0.828125, -0.203125), (0.046875, -0.812500, -0.148438), (-0.046875, -0.812500, -0.148438), (0.093750, -0.812500, -0.156250), (-0.093750, -0.812500, -0.156250), (0.109375, -0.828125, -0.226562), (-0.109375, -0.828125, -0.226562), (0.078125, -0.804688, -0.250000), (-0.078125, -0.804688, -0.250000), (-0.000000, -0.804687, -0.289062), (0.257812, -0.554688, -0.312500), (-0.257812, -0.554688, -0.312500), (0.164062, -0.710938, -0.242188), (-0.164062, -0.710938, -0.242188), (0.179688, -0.710938, -0.312500), (-0.179688, -0.710938, -0.312500), (0.234375, -0.554688, -0.250000), (-0.234375, -0.554688, -0.250000), (-0.000000, -0.687500, -0.875000), (0.046875, -0.687500, -0.867188), (-0.046875, -0.687500, -0.867188), (0.093750, -0.710938, -0.820312), (-0.093750, -0.710938, -0.820312), (0.093750, -0.726562, -0.742188), (-0.093750, -0.726562, -0.742188), (-0.000000, -0.656250, -0.781250), (0.093750, -0.664062, -0.750000), (-0.093750, -0.664062, -0.750000), (0.093750, -0.640625, -0.812500), (-0.093750, -0.640625, -0.812500), (0.046875, -0.632812, -0.851562), (-0.046875, -0.632812, -0.851562), (-0.000000, -0.632812, -0.859375), (0.171875, -0.781250, 0.218750), (-0.171875, -0.781250, 0.218750), (0.187500, -0.773438, 0.156250), (-0.187500, -0.773438, 0.156250), (0.335938, -0.757812, 0.429687), (-0.335938, -0.757812, 0.429687), (0.273438, -0.773438, 0.421875), (-0.273438, -0.773438, 0.421875), (0.421875, -0.773438, 0.398437), (-0.421875, -0.773438, 0.398437), (0.562500, -0.695312, 0.351562), (-0.562500, -0.695312, 0.351562), (0.585938, -0.687500, 0.289062), (-0.585938, -0.687500, 0.289062), (0.578125, -0.679688, 0.195313), (-0.578125, -0.679688, 0.195313), (0.476562, -0.718750, 0.101562), (-0.476562, -0.718750, 0.101562), (0.375000, -0.742188, 0.062500), (-0.375000, -0.742188, 0.062500), (0.226562, -0.781250, 0.109375), (-0.226562, -0.781250, 0.109375), (0.179688, -0.781250, 0.296875), (-0.179688, -0.781250, 0.296875), (0.210938, -0.781250, 0.375000), (-0.210938, -0.781250, 0.375000), (0.234375, -0.757812, 0.359375), (-0.234375, -0.757812, 0.359375), (0.195312, -0.757812, 0.296875), (-0.195312, -0.757812, 0.296875), (0.242188, -0.757812, 0.125000), (-0.242188, -0.757812, 0.125000), (0.375000, -0.726562, 0.085937), (-0.375000, -0.726562, 0.085937), (0.460938, -0.703125, 0.117188), (-0.460938, -0.703125, 0.117188), (0.546875, -0.671875, 0.210937), (-0.546875, -0.671875, 0.210937), (0.554688, -0.671875, 0.281250), (-0.554688, -0.671875, 0.281250), (0.531250, -0.679688, 0.335937), (-0.531250, -0.679688, 0.335937), (0.414062, -0.750000, 0.390625), (-0.414062, -0.750000, 0.390625), (0.281250, -0.765625, 0.398438), (-0.281250, -0.765625, 0.398438), (0.335938, -0.750000, 0.406250), (-0.335938, -0.750000, 0.406250), (0.203125, -0.750000, 0.171875), (-0.203125, -0.750000, 0.171875), (0.195312, -0.750000, 0.226562), (-0.195312, -0.750000, 0.226562), (0.109375, -0.609375, 0.460938), (-0.109375, -0.609375, 0.460938), (0.195312, -0.617188, 0.664062), (-0.195312, -0.617188, 0.664062), (0.335938, -0.593750, 0.687500), (-0.335938, -0.593750, 0.687500), (0.484375, -0.554688, 0.554687), (-0.484375, -0.554688, 0.554687), (0.679688, -0.492188, 0.453125), (-0.679688, -0.492188, 0.453125), (0.796875, -0.460938, 0.406250), (-0.796875, -0.460938, 0.406250), (0.773438, -0.375000, 0.164062), (-0.773438, -0.375000, 0.164062), (0.601562, -0.414062, 0.000000), (-0.601562, -0.414062, 0.000000), (0.437500, -0.468750, -0.093750), (-0.437500, -0.468750, -0.093750), (-0.000000, -0.289063, 0.898438), (-0.000000, 0.078125, 0.984375), (-0.000000, 0.671875, -0.195312), (-0.000000, -0.187500, -0.460938), (-0.000000, -0.460938, -0.976562), (-0.000000, -0.343750, -0.804688), (-0.000000, -0.320312, -0.570312), (-0.000000, -0.281250, -0.484375), (0.851562, -0.054688, 0.234375), (-0.851562, -0.054688, 0.234375), (0.859375, 0.046875, 0.320312), (-0.859375, 0.046875, 0.320312), (0.773438, 0.437500, 0.265625), (-0.773438, 0.437500, 0.265625), (0.460938, 0.703125, 0.437500), (-0.460938, 0.703125, 0.437500), (0.734375, -0.070312, -0.046875), (-0.734375, -0.070312, -0.046875), (0.593750, 0.164062, -0.125000), (-0.593750, 0.164062, -0.125000), (0.640625, 0.429688, -0.007813), (-0.640625, 0.429688, -0.007813), (0.335938, 0.664062, 0.054687), (-0.335938, 0.664062, 0.054687), (0.234375, -0.406250, -0.351562), (-0.234375, -0.406250, -0.351562), (0.179688, -0.257812, -0.414062), (-0.179688, -0.257812, -0.414062), (0.289062, -0.382812, -0.710938), (-0.289062, -0.382812, -0.710938), (0.250000, -0.390625, -0.500000), (-0.250000, -0.390625, -0.500000), (0.328125, -0.398438, -0.914062), (-0.328125, -0.398438, -0.914062), (0.140625, -0.367188, -0.757812), (-0.140625, -0.367188, -0.757812), (0.125000, -0.359375, -0.539062), (-0.125000, -0.359375, -0.539062), (0.164062, -0.437500, -0.945312), (-0.164062, -0.437500, -0.945312), (0.218750, -0.429687, -0.281250), (-0.218750, -0.429687, -0.281250), (0.210938, -0.468750, -0.226562), (-0.210938, -0.468750, -0.226562), (0.203125, -0.500000, -0.171875), (-0.203125, -0.500000, -0.171875), (0.210938, -0.164062, -0.390625), (-0.210938, -0.164062, -0.390625), (0.296875, 0.265625, -0.312500), (-0.296875, 0.265625, -0.312500), (0.343750, 0.539062, -0.148438), (-0.343750, 0.539062, -0.148438), (0.453125, 0.382813, 0.867187), (-0.453125, 0.382813, 0.867187), (0.453125, 0.070312, 0.929688), (-0.453125, 0.070312, 0.929688), (0.453125, -0.234375, 0.851563), (-0.453125, -0.234375, 0.851563), (0.460938, -0.429688, 0.523438), (-0.460938, -0.429688, 0.523438), (0.726562, -0.335937, 0.406250), (-0.726562, -0.335937, 0.406250), (0.632812, -0.281250, 0.453125), (-0.632812, -0.281250, 0.453125), (0.640625, -0.054688, 0.703125), (-0.640625, -0.054688, 0.703125), (0.796875, -0.125000, 0.562500), (-0.796875, -0.125000, 0.562500), (0.796875, 0.117187, 0.617188), (-0.796875, 0.117187, 0.617188), (0.640625, 0.195312, 0.750000), (-0.640625, 0.195312, 0.750000), (0.640625, 0.445312, 0.679688), (-0.640625, 0.445312, 0.679688), (0.796875, 0.359375, 0.539063), (-0.796875, 0.359375, 0.539063), (0.617188, 0.585938, 0.328125), (-0.617188, 0.585938, 0.328125), (0.484375, 0.546875, 0.023438), (-0.484375, 0.546875, 0.023438), (0.820312, 0.203125, 0.328125), (-0.820312, 0.203125, 0.328125), (0.406250, -0.148438, -0.171875), (-0.406250, -0.148438, -0.171875), (0.429688, 0.210938, -0.195312), (-0.429688, 0.210938, -0.195312), (0.890625, 0.234375, 0.406250), (-0.890625, 0.234375, 0.406250), (0.773438, 0.125000, -0.140625), (-0.773438, 0.125000, -0.140625), (1.039062, 0.328125, -0.101562), (-1.039062, 0.328125, -0.101562), (1.281250, 0.429688, 0.054688), (-1.281250, 0.429688, 0.054688), (1.351562, 0.421875, 0.320312), (-1.351562, 0.421875, 0.320312), (1.234375, 0.421875, 0.507812), (-1.234375, 0.421875, 0.507812), (1.023438, 0.312500, 0.476562), (-1.023438, 0.312500, 0.476562), (1.015625, 0.289062, 0.414063), (-1.015625, 0.289062, 0.414063), (1.187500, 0.390625, 0.437500), (-1.187500, 0.390625, 0.437500), (1.265625, 0.406250, 0.289062), (-1.265625, 0.406250, 0.289062), (1.210938, 0.406250, 0.078125), (-1.210938, 0.406250, 0.078125), (1.031250, 0.304687, -0.039062), (-1.031250, 0.304687, -0.039062), (0.828125, 0.132812, -0.070312), (-0.828125, 0.132812, -0.070312), (0.921875, 0.218750, 0.359375), (-0.921875, 0.218750, 0.359375), (0.945312, 0.289062, 0.304688), (-0.945312, 0.289062, 0.304688), (0.882812, 0.210938, -0.023437), (-0.882812, 0.210938, -0.023437), (1.039062, 0.367188, 0.000000), (-1.039062, 0.367188, 0.000000), (1.187500, 0.445312, 0.093750), (-1.187500, 0.445312, 0.093750), (1.234375, 0.445312, 0.250000), (-1.234375, 0.445312, 0.250000), (1.171875, 0.437500, 0.359375), (-1.171875, 0.437500, 0.359375), (1.023438, 0.359375, 0.343750), (-1.023438, 0.359375, 0.343750), (0.843750, 0.210938, 0.289062), (-0.843750, 0.210938, 0.289062), (0.835938, 0.273438, 0.171875), (-0.835938, 0.273438, 0.171875), (0.757812, 0.273438, 0.093750), (-0.757812, 0.273438, 0.093750), (0.820312, 0.273438, 0.085938), (-0.820312, 0.273438, 0.085938), (0.843750, 0.273438, 0.015625), (-0.843750, 0.273438, 0.015625), (0.812500, 0.273438, -0.015625), (-0.812500, 0.273438, -0.015625), (0.726562, 0.070312, 0.000000), (-0.726562, 0.070312, 0.000000), (0.718750, 0.171875, -0.023438), (-0.718750, 0.171875, -0.023438), (0.718750, 0.187500, 0.039062), (-0.718750, 0.187500, 0.039062), (0.796875, 0.210938, 0.203125), (-0.796875, 0.210938, 0.203125), (0.890625, 0.265625, 0.242188), (-0.890625, 0.265625, 0.242188), (0.890625, 0.320312, 0.234375), (-0.890625, 0.320312, 0.234375), (0.812500, 0.320312, -0.015625), (-0.812500, 0.320312, -0.015625), (0.851562, 0.320312, 0.015625), (-0.851562, 0.320312, 0.015625), (0.828125, 0.320312, 0.078125), (-0.828125, 0.320312, 0.078125), (0.765625, 0.320312, 0.093750), (-0.765625, 0.320312, 0.093750), (0.843750, 0.320312, 0.171875), (-0.843750, 0.320312, 0.171875), (1.039062, 0.414062, 0.328125), (-1.039062, 0.414062, 0.328125), (1.187500, 0.484375, 0.343750), (-1.187500, 0.484375, 0.343750), (1.257812, 0.492188, 0.242188), (-1.257812, 0.492188, 0.242188), (1.210938, 0.484375, 0.085938), (-1.210938, 0.484375, 0.085938), (1.046875, 0.421875, 0.000000), (-1.046875, 0.421875, 0.000000), (0.882812, 0.265625, -0.015625), (-0.882812, 0.265625, -0.015625), (0.953125, 0.343750, 0.289062), (-0.953125, 0.343750, 0.289062), (0.890625, 0.328125, 0.109375), (-0.890625, 0.328125, 0.109375), (0.937500, 0.335938, 0.062500), (-0.937500, 0.335938, 0.062500), (1.000000, 0.367187, 0.125000), (-1.000000, 0.367187, 0.125000), (0.960938, 0.351562, 0.171875), (-0.960938, 0.351562, 0.171875), (1.015625, 0.375000, 0.234375), (-1.015625, 0.375000, 0.234375), (1.054688, 0.382812, 0.187500), (-1.054688, 0.382812, 0.187500), (1.109375, 0.390625, 0.210938), (-1.109375, 0.390625, 0.210938), (1.085938, 0.390625, 0.273438), (-1.085938, 0.390625, 0.273438), (1.023438, 0.484375, 0.437500), (-1.023438, 0.484375, 0.437500), (1.250000, 0.546875, 0.468750), (-1.250000, 0.546875, 0.468750), (1.367188, 0.500000, 0.296875), (-1.367188, 0.500000, 0.296875), (1.312500, 0.531250, 0.054688), (-1.312500, 0.531250, 0.054688), (1.039062, 0.492188, -0.085938), (-1.039062, 0.492188, -0.085938), (0.789062, 0.328125, -0.125000), (-0.789062, 0.328125, -0.125000), (0.859375, 0.382812, 0.382812), (-0.859375, 0.382812, 0.382812), (-0.356742, 0.685852, -3.386440), (-0.356742, -0.128023, 0.087348), (-0.356742, 1.380524, -3.223685), (-0.356742, 0.566649, 0.250103), (0.356742, 0.685852, -3.386440), (0.356742, -0.128023, 0.087348), (0.356742, 1.380524, -3.223685), (0.356742, 0.566649, 0.250103), (-0.356742, 0.595421, -3.000464), (-0.356742, 0.504991, -2.614487), (-0.356742, 0.414560, -2.228511), (-0.356742, 0.324130, -1.842534), (-0.356742, 0.233699, -1.456558), (-0.356742, 0.143268, -1.070582), (-0.356742, 0.052838, -0.684605), (-0.356742, -0.037593, -0.298628), (-0.356742, 0.657080, -0.135874), (-0.356742, 0.747510, -0.521850), (-0.356742, 0.837941, -0.907826), (-0.356742, 0.928371, -1.293803), (-0.356742, 1.018802, -1.679779), (-0.356742, 1.109233, -2.065756), (-0.356742, 1.199663, -2.451732), (-0.356742, 1.290094, -2.837709), (0.356742, 0.657080, -0.135874), (0.356742, 0.747510, -0.521850), (0.356742, 0.837941, -0.907826), (0.356742, 0.928371, -1.293803), (0.356742, 1.018802, -1.679779), (0.356742, 1.109233, -2.065756), (0.356742, 1.199663, -2.451732), (0.356742, 1.290094, -2.837709), (0.356742, -0.037593, -0.298628), (0.356742, 0.052838, -0.684605), (0.356742, 0.143268, -1.070582), (0.356742, 0.233699, -1.456558), (0.356742, 0.324130, -1.842534), (0.356742, 0.414560, -2.228511), (0.356742, 0.504991, -2.614487), (0.356742, 0.595421, -3.000464)]
        uniform token subdivisionScheme = "none"

        texCoord2f[] primvars:UVMap = [(0.843250, 0.588863), (0.833697, 0.611927), (0.794218, 0.611927), (0.815334, 0.560948), (0.866314, 0.937441), (0.866314, 0.897962), (0.889378, 0.888409), (0.917293, 0.916324), (0.815334, 0.560948), (0.794218, 0.611927), (0.746541, 0.611927), (0.781622, 0.527235), (0.866314, 0.985118), (0.866314, 0.937441), (0.917293, 0.916324), (0.951006, 0.950037), (0.794218, 0.611927), (0.815334, 0.662907), (0.781622, 0.696619), (0.746541, 0.611927), (0.781622, 0.950037), (0.815334, 0.916325), (0.866314, 0.937441), (0.866314, 0.985118), (0.833697, 0.611927), (0.843250, 0.634991), (0.815334, 0.662907), (0.794218, 0.611927), (0.815334, 0.916325), (0.843250, 0.888409), (0.866314, 0.897962), (0.866314, 0.937441), (0.843250, 0.634991), (0.866314, 0.644544), (0.866314, 0.684023), (0.815334, 0.662907), (0.794218, 0.865345), (0.833697, 0.865345), (0.843250, 0.888409), (0.815334, 0.916325), (0.815334, 0.662907), (0.866314, 0.684023), (0.866314, 0.731700), (0.781622, 0.696619), (0.746541, 0.865345), (0.794218, 0.865345), (0.815334, 0.916325), (0.781622, 0.950037), (0.866314, 0.684023), (0.917293, 0.662907), (0.951006, 0.696619), (0.866314, 0.731700), (0.781622, 0.780653), (0.815334, 0.814366), (0.794218, 0.865345), (0.746541, 0.865345), (0.866314, 0.644544), (0.889378, 0.634991), (0.917293, 0.662907), (0.866314, 0.684023), (0.815334, 0.814366), (0.843250, 0.842281), (0.833697, 0.865345), (0.794218, 0.865345), (0.889378, 0.634991), (0.898931, 0.611927), (0.938410, 0.611927), (0.917293, 0.662907), (0.866314, 0.793249), (0.866314, 0.832728), (0.843250, 0.842281), (0.815334, 0.814366), (0.917293, 0.662907), (0.938410, 0.611927), (0.986087, 0.611927), (0.951006, 0.696619), (0.866314, 0.745572), (0.866314, 0.793249), (0.815334, 0.814366), (0.781622, 0.780653), (0.938410, 0.611927), (0.917294, 0.560947), (0.951006, 0.527235), (0.986087, 0.611927), (0.951006, 0.780653), (0.917294, 0.814365), (0.866314, 0.793249), (0.866314, 0.745572), (0.898931, 0.611927), (0.889378, 0.588863), (0.917294, 0.560947), (0.938410, 0.611927), (0.917294, 0.814365), (0.889378, 0.842281), (0.866314, 0.832728), (0.866314, 0.793249), (0.889378, 0.588863), (0.866314, 0.579310), (0.866314, 0.539831), (0.917294, 0.560947), (0.938410, 0.865345), (0.898931, 0.865345), (0.889378, 0.842281), (0.917294, 0.814365), (0.917294, 0.560947), (0.866314, 0.539831), (0.866314, 0.492154), (0.951006, 0.527235), (0.986087, 0.865345), (0.938410, 0.865345), (0.917294, 0.814365), (0.951006, 0.780653), (0.866314, 0.539831), (0.815334, 0.560948), (0.781622, 0.527235), (0.866314, 0.492154), (0.951006, 0.950037), (0.917293, 0.916324), (0.938410, 0.865345), (0.986087, 0.865345), (0.866314, 0.579310), (0.843250, 0.588863), (0.815334, 0.560948), (0.866314, 0.539831), (0.917293, 0.916324), (0.889378, 0.888409), (0.898931, 0.865345), (0.938410, 0.865345), (0.843250, 0.588863), (0.866314, 0.579310), (0.866314, 0.585461), (0.847600, 0.593213), (0.892780, 0.865345), (0.898931, 0.865345), (0.889378, 0.888409), (0.885028, 0.884059), (0.866314, 0.579310), (0.889378, 0.588863), (0.885028, 0.593213), (0.866314, 0.585461), (0.885028, 0.846631), (0.889378, 0.842281), (0.898931, 0.865345), (0.892780, 0.865345), (0.889378, 0.588863), (0.898931, 0.611927), (0.892780, 0.611927), (0.885028, 0.593213), (0.866314, 0.838879), (0.866314, 0.832728), (0.889378, 0.842281), (0.885028, 0.846631), (0.898931, 0.611927), (0.889378, 0.634991), (0.885028, 0.630641), (0.892780, 0.611927), (0.847600, 0.846631), (0.843250, 0.842281), (0.866314, 0.832728), (0.866314, 0.838879), (0.889378, 0.634991), (0.866314, 0.644544), (0.866314, 0.638393), (0.885028, 0.630641), (0.839848, 0.865345), (0.833697, 0.865345), (0.843250, 0.842281), (0.847600, 0.846631), (0.866314, 0.644544), (0.843250, 0.634991), (0.847600, 0.630641), (0.866314, 0.638393), (0.847600, 0.884059), (0.843250, 0.888409), (0.833697, 0.865345), (0.839848, 0.865345), (0.843250, 0.634991), (0.833697, 0.611927), (0.839848, 0.611927), (0.847600, 0.630641), (0.866314, 0.891811), (0.866314, 0.897962), (0.843250, 0.888409), (0.847600, 0.884059), (0.833697, 0.611927), (0.843250, 0.588863), (0.847600, 0.593213), (0.839848, 0.611927), (0.885028, 0.884059), (0.889378, 0.888409), (0.866314, 0.897962), (0.866314, 0.891811), (0.866314, 0.611927), (0.839848, 0.611927), (0.847600, 0.593213), (0.885028, 0.884059), (0.866314, 0.891811), (0.866314, 0.865345), (0.847600, 0.630641), (0.839848, 0.611927), (0.866314, 0.611927), (0.866314, 0.865345), (0.866314, 0.891811), (0.847600, 0.884059), (0.866314, 0.611927), (0.866314, 0.638393), (0.847600, 0.630641), (0.847600, 0.884059), (0.839848, 0.865345), (0.866314, 0.865345), (0.866314, 0.611927), (0.885028, 0.630641), (0.866314, 0.638393), (0.839848, 0.865345), (0.847600, 0.846631), (0.866314, 0.865345), (0.866314, 0.611927), (0.892780, 0.611927), (0.885028, 0.630641), (0.847600, 0.846631), (0.866314, 0.838879), (0.866314, 0.865345), (0.866314, 0.611927), (0.885028, 0.593213), (0.892780, 0.611927), (0.866314, 0.838879), (0.885028, 0.846631), (0.866314, 0.865345), (0.866314, 0.611927), (0.866314, 0.585461), (0.885028, 0.593213), (0.885028, 0.846631), (0.892780, 0.865345), (0.866314, 0.865345), (0.866314, 0.611927), (0.847600, 0.593213), (0.866314, 0.585461), (0.892780, 0.865345), (0.885028, 0.884059), (0.866314, 0.865345), (0.520711, 0.060503), (0.517028, 0.068490), (0.500000, 0.064527), (0.500000, 0.054411), (0.500000, 0.064527), (0.482972, 0.068490), (0.479289, 0.060503), (0.500000, 0.054411), (0.530457, 0.065062), (0.522612, 0.070678), (0.517028, 0.068490), (0.520711, 0.060503), (0.482972, 0.068490), (0.477388, 0.070678), (0.469543, 0.065062), (0.479289, 0.060503), (0.532878, 0.067822), (0.526301, 0.079422), (0.522612, 0.070678), (0.530457, 0.065062), (0.477388, 0.070678), (0.473699, 0.079422), (0.467122, 0.067822), (0.469543, 0.065062), (0.544695, 0.083023), (0.529228, 0.091098), (0.526301, 0.079422), (0.532878, 0.067822), (0.473699, 0.079422), (0.470772, 0.091098), (0.455305, 0.083023), (0.467122, 0.067822), (0.565647, 0.115495), (0.537536, 0.127779), (0.529228, 0.091098), (0.544695, 0.083023), (0.470772, 0.091098), (0.462464, 0.127779), (0.434353, 0.115495), (0.455305, 0.083023), (0.586916, 0.172042), (0.626605, 0.208159), (0.600470, 0.238288), (0.535885, 0.215568), (0.399530, 0.238288), (0.373395, 0.208159), (0.413084, 0.172042), (0.464115, 0.215568), (0.626605, 0.208159), (0.650908, 0.240294), (0.636962, 0.261221), (0.600470, 0.238288), (0.363038, 0.261221), (0.349092, 0.240294), (0.373395, 0.208159), (0.399530, 0.238288), (0.650908, 0.240294), (0.689501, 0.268805), (0.655896, 0.284413), (0.636962, 0.261221), (0.344104, 0.284413), (0.310499, 0.268805), (0.349092, 0.240294), (0.363038, 0.261221), (0.689501, 0.268805), (0.684517, 0.317795), (0.659507, 0.313152), (0.655896, 0.284413), (0.340493, 0.313152), (0.315483, 0.317795), (0.310499, 0.268805), (0.344104, 0.284413), (0.684517, 0.317795), (0.671357, 0.334694), (0.649107, 0.322437), (0.659507, 0.313152), (0.350893, 0.322437), (0.328643, 0.334694), (0.315483, 0.317795), (0.340493, 0.313152), (0.671357, 0.334694), (0.636775, 0.370732), (0.613636, 0.353108), (0.649107, 0.322437), (0.386364, 0.353108), (0.363225, 0.370732), (0.328643, 0.334694), (0.350893, 0.322437), (0.636775, 0.370732), (0.602261, 0.395588), (0.594178, 0.371277), (0.613636, 0.353108), (0.405822, 0.371277), (0.397739, 0.395588), (0.363225, 0.370732), (0.386364, 0.353108), (0.602261, 0.395588), (0.581044, 0.398468), (0.577351, 0.373341), (0.594178, 0.371277), (0.422649, 0.373341), (0.418956, 0.398468), (0.397739, 0.395588), (0.405822, 0.371277), (0.581044, 0.398468), (0.532016, 0.387365), (0.539817, 0.354339), (0.577351, 0.373341), (0.460183, 0.354339), (0.467984, 0.387365), (0.418956, 0.398468), (0.422649, 0.373341), (0.532016, 0.387365), (0.500000, 0.382860), (0.500000, 0.340417), (0.539817, 0.354339), (0.500000, 0.340417), (0.500000, 0.382860), (0.467984, 0.387365), (0.460183, 0.354339), (0.559135, 0.334326), (0.579057, 0.335646), (0.577351, 0.373341), (0.539817, 0.354339), (0.422649, 0.373341), (0.420943, 0.335646), (0.440865, 0.334326), (0.460183, 0.354339), (0.579057, 0.335646), (0.592090, 0.332885), (0.594178, 0.371277), (0.577351, 0.373341), (0.405822, 0.371277), (0.407910, 0.332885), (0.420943, 0.335646), (0.422649, 0.373341), (0.606163, 0.325516), (0.613636, 0.353108), (0.594178, 0.371277), (0.592090, 0.332885), (0.405822, 0.371277), (0.386364, 0.353108), (0.393837, 0.325516), (0.407910, 0.332885), (0.628251, 0.311636), (0.649107, 0.322437), (0.613636, 0.353108), (0.606163, 0.325516), (0.386364, 0.353108), (0.350893, 0.322437), (0.371749, 0.311636), (0.393837, 0.325516), (0.635551, 0.300507), (0.659507, 0.313152), (0.649107, 0.322437), (0.628251, 0.311636), (0.350893, 0.322437), (0.340493, 0.313152), (0.364449, 0.300507), (0.371749, 0.311636), (0.631484, 0.283889), (0.655896, 0.284413), (0.659507, 0.313152), (0.635551, 0.300507), (0.340493, 0.313152), (0.344104, 0.284413), (0.368516, 0.283889), (0.364449, 0.300507), (0.611331, 0.264411), (0.636962, 0.261221), (0.655896, 0.284413), (0.631484, 0.283889), (0.344104, 0.284413), (0.363038, 0.261221), (0.388669, 0.264411), (0.368516, 0.283889), (0.592372, 0.254897), (0.600470, 0.238288), (0.636962, 0.261221), (0.611331, 0.264411), (0.363038, 0.261221), (0.399530, 0.238288), (0.407628, 0.254897), (0.388669, 0.264411), (0.559669, 0.267717), (0.535885, 0.215568), (0.600470, 0.238288), (0.592372, 0.254897), (0.399530, 0.238288), (0.464115, 0.215568), (0.440331, 0.267717), (0.407628, 0.254897), (0.559669, 0.267717), (0.550878, 0.277832), (0.500000, 0.252445), (0.535885, 0.215568), (0.500000, 0.252445), (0.449122, 0.277832), (0.440331, 0.267717), (0.464115, 0.215568), (0.559135, 0.334326), (0.539817, 0.354339), (0.500000, 0.340417), (0.544001, 0.314523), (0.500000, 0.340417), (0.460183, 0.354339), (0.440865, 0.334326), (0.455999, 0.314523), (0.544001, 0.314523), (0.500000, 0.340417), (0.500000, 0.295691), (0.543637, 0.293371), (0.500000, 0.295691), (0.500000, 0.340417), (0.455999, 0.314523), (0.456363, 0.293371), (0.500000, 0.252445), (0.550878, 0.277832), (0.543637, 0.293371), (0.500000, 0.295691), (0.456363, 0.293371), (0.449122, 0.277832), (0.500000, 0.252445), (0.500000, 0.295691), (0.506819, 0.075382), (0.500000, 0.073497), (0.500000, 0.064527), (0.517028, 0.068490), (0.500000, 0.064527), (0.500000, 0.073497), (0.493181, 0.075382), (0.482972, 0.068490), (0.511782, 0.080633), (0.506819, 0.075382), (0.517028, 0.068490), (0.522612, 0.070678), (0.482972, 0.068490), (0.493181, 0.075382), (0.488218, 0.080633), (0.477388, 0.070678), (0.512172, 0.093457), (0.511782, 0.080633), (0.522612, 0.070678), (0.526301, 0.079422), (0.477388, 0.070678), (0.488218, 0.080633), (0.487828, 0.093457), (0.473699, 0.079422), (0.537536, 0.127779), (0.514257, 0.133422), (0.513874, 0.097191), (0.529228, 0.091098), (0.486126, 0.097191), (0.485743, 0.133422), (0.462464, 0.127779), (0.470772, 0.091098), (0.512172, 0.093457), (0.526301, 0.079422), (0.529228, 0.091098), (0.513874, 0.097191), (0.470772, 0.091098), (0.473699, 0.079422), (0.487828, 0.093457), (0.486126, 0.097191), (0.520226, 0.164615), (0.500000, 0.157864), (0.500000, 0.134352), (0.514257, 0.133422), (0.500000, 0.134352), (0.500000, 0.157864), (0.479774, 0.164615), (0.485743, 0.133422), (0.513874, 0.097191), (0.514257, 0.133422), (0.500000, 0.134352), (0.500000, 0.100063), (0.500000, 0.134352), (0.485743, 0.133422), (0.486126, 0.097191), (0.500000, 0.100063), (0.500000, 0.091346), (0.512172, 0.093457), (0.513874, 0.097191), (0.500000, 0.100063), (0.486126, 0.097191), (0.487828, 0.093457), (0.500000, 0.091346), (0.500000, 0.100063), (0.530258, 0.180239), (0.521901, 0.181560), (0.517666, 0.172353), (0.520226, 0.164615), (0.482334, 0.172353), (0.478099, 0.181560), (0.469742, 0.180239), (0.479774, 0.164615), (0.523673, 0.198817), (0.518957, 0.194728), (0.521901, 0.181560), (0.530258, 0.180239), (0.478099, 0.181560), (0.481043, 0.194728), (0.476327, 0.198817), (0.469742, 0.180239), (0.500000, 0.203867), (0.508211, 0.197295), (0.518957, 0.194728), (0.523673, 0.198817), (0.481043, 0.194728), (0.491789, 0.197295), (0.500000, 0.203867), (0.476327, 0.198817), (0.500000, 0.197278), (0.500000, 0.192167), (0.508211, 0.197295), (0.500000, 0.203867), (0.491789, 0.197295), (0.500000, 0.192167), (0.500000, 0.197278), (0.500000, 0.203867), (0.500000, 0.157864), (0.520226, 0.164615), (0.517666, 0.172353), (0.500000, 0.165170), (0.482334, 0.172353), (0.479774, 0.164615), (0.500000, 0.157864), (0.500000, 0.165170), (0.500000, 0.165170), (0.517666, 0.172353), (0.513538, 0.176949), (0.500000, 0.171718), (0.486462, 0.176949), (0.482334, 0.172353), (0.500000, 0.165170), (0.500000, 0.171718), (0.500000, 0.192167), (0.500000, 0.186182), (0.508818, 0.192407), (0.508211, 0.197295), (0.491182, 0.192407), (0.500000, 0.186182), (0.500000, 0.192167), (0.491789, 0.197295), (0.508211, 0.197295), (0.508818, 0.192407), (0.515232, 0.190709), (0.518957, 0.194728), (0.484768, 0.190709), (0.491182, 0.192407), (0.491789, 0.197295), (0.481043, 0.194728), (0.518957, 0.194728), (0.515232, 0.190709), (0.516908, 0.181873), (0.521901, 0.181560), (0.483092, 0.181873), (0.484768, 0.190709), (0.481043, 0.194728), (0.478099, 0.181560), (0.521901, 0.181560), (0.516908, 0.181873), (0.513538, 0.176949), (0.517666, 0.172353), (0.486462, 0.176949), (0.483092, 0.181873), (0.478099, 0.181560), (0.482334, 0.172353), (0.500000, 0.186182), (0.516908, 0.181873), (0.515232, 0.190709), (0.508818, 0.192407), (0.484768, 0.190709), (0.483092, 0.181873), (0.500000, 0.186182), (0.491182, 0.192407), (0.500000, 0.186182), (0.500000, 0.171718), (0.513538, 0.176949), (0.516908, 0.181873), (0.486462, 0.176949), (0.500000, 0.171718), (0.500000, 0.186182), (0.483092, 0.181873), (0.500000, 0.203867), (0.523673, 0.198817), (0.535885, 0.215568), (0.500000, 0.252445), (0.464115, 0.215568), (0.476327, 0.198817), (0.500000, 0.203867), (0.500000, 0.252445), (0.523673, 0.198817), (0.530258, 0.180239), (0.544209, 0.172814), (0.535885, 0.215568), (0.455791, 0.172814), (0.469742, 0.180239), (0.476327, 0.198817), (0.464115, 0.215568), (0.530258, 0.180239), (0.520226, 0.164615), (0.541327, 0.154899), (0.544209, 0.172814), (0.458673, 0.154899), (0.479774, 0.164615), (0.469742, 0.180239), (0.455791, 0.172814), (0.520226, 0.164615), (0.514257, 0.133422), (0.537536, 0.127779), (0.541327, 0.154899), (0.462464, 0.127779), (0.485743, 0.133422), (0.479774, 0.164615), (0.458673, 0.154899), (0.565647, 0.115495), (0.578661, 0.139176), (0.541327, 0.154899), (0.537536, 0.127779), (0.458673, 0.154899), (0.421339, 0.139176), (0.434353, 0.115495), (0.462464, 0.127779), (0.578661, 0.139176), (0.583245, 0.154155), (0.544209, 0.172814), (0.541327, 0.154899), (0.455791, 0.172814), (0.416755, 0.154155), (0.421339, 0.139176), (0.458673, 0.154899), (0.586916, 0.172042), (0.535885, 0.215568), (0.544209, 0.172814), (0.583245, 0.154155), (0.455791, 0.172814), (0.464115, 0.215568), (0.413084, 0.172042), (0.416755, 0.154155), (0.512172, 0.093457), (0.500000, 0.091346), (0.500000, 0.089977), (0.509911, 0.090724), (0.500000, 0.089977), (0.500000, 0.091346), (0.487828, 0.093457), (0.490089, 0.090724), (0.511782, 0.080633), (0.512172, 0.093457), (0.509911, 0.090724), (0.509713, 0.082236), (0.490089, 0.090724), (0.487828, 0.093457), (0.488218, 0.080633), (0.490287, 0.082236), (0.506819, 0.075382), (0.511782, 0.080633), (0.509713, 0.082236), (0.505196, 0.077083), (0.490287, 0.082236), (0.488218, 0.080633), (0.493181, 0.075382), (0.494804, 0.077083), (0.500000, 0.073497), (0.506819, 0.075382), (0.505196, 0.077083), (0.500000, 0.075473), (0.494804, 0.077083), (0.493181, 0.075382), (0.500000, 0.073497), (0.500000, 0.075473), (0.500000, 0.075473), (0.505196, 0.077083), (0.503445, 0.080840), (0.500000, 0.080320), (0.496555, 0.080840), (0.494804, 0.077083), (0.500000, 0.075473), (0.500000, 0.080320), (0.505196, 0.077083), (0.509713, 0.082236), (0.506660, 0.083289), (0.503445, 0.080840), (0.493340, 0.083289), (0.490287, 0.082236), (0.494804, 0.077083), (0.496555, 0.080840), (0.509713, 0.082236), (0.509911, 0.090724), (0.506822, 0.086791), (0.506660, 0.083289), (0.493178, 0.086791), (0.490089, 0.090724), (0.490287, 0.082236), (0.493340, 0.083289), (0.509911, 0.090724), (0.500000, 0.089977), (0.500000, 0.085637), (0.506822, 0.086791), (0.500000, 0.085637), (0.500000, 0.089977), (0.490089, 0.090724), (0.493178, 0.086791), (0.500000, 0.085637), (0.500000, 0.080320), (0.503445, 0.080840), (0.506822, 0.086791), (0.496555, 0.080840), (0.500000, 0.080320), (0.500000, 0.085637), (0.493178, 0.086791), (0.506822, 0.086791), (0.503445, 0.080840), (0.506660, 0.083289), (0.493340, 0.083289), (0.496555, 0.080840), (0.493178, 0.086791), (0.543637, 0.293371), (0.550878, 0.277832), (0.562361, 0.284338), (0.559190, 0.294882), (0.437639, 0.284338), (0.449122, 0.277832), (0.456363, 0.293371), (0.440810, 0.294882), (0.544001, 0.314523), (0.543637, 0.293371), (0.559190, 0.294882), (0.563180, 0.307151), (0.440810, 0.294882), (0.456363, 0.293371), (0.455999, 0.314523), (0.436820, 0.307151), (0.559135, 0.334326), (0.544001, 0.314523), (0.563180, 0.307151), (0.570458, 0.318697), (0.436820, 0.307151), (0.455999, 0.314523), (0.440865, 0.334326), (0.429542, 0.318697), (0.550878, 0.277832), (0.559669, 0.267717), (0.569243, 0.278245), (0.562361, 0.284338), (0.430757, 0.278245), (0.440331, 0.267717), (0.449122, 0.277832), (0.437639, 0.284338), (0.559669, 0.267717), (0.592372, 0.254897), (0.589914, 0.271772), (0.569243, 0.278245), (0.410086, 0.271772), (0.407628, 0.254897), (0.440331, 0.267717), (0.430757, 0.278245), (0.592372, 0.254897), (0.611331, 0.264411), (0.602190, 0.277180), (0.589914, 0.271772), (0.397810, 0.277180), (0.388669, 0.264411), (0.407628, 0.254897), (0.410086, 0.271772), (0.611331, 0.264411), (0.631484, 0.283889), (0.617110, 0.287175), (0.602190, 0.277180), (0.382890, 0.287175), (0.368516, 0.283889), (0.388669, 0.264411), (0.397810, 0.277180), (0.631484, 0.283889), (0.635551, 0.300507), (0.618074, 0.299197), (0.617110, 0.287175), (0.381926, 0.299197), (0.364449, 0.300507), (0.368516, 0.283889), (0.382890, 0.287175), (0.635551, 0.300507), (0.628251, 0.311636), (0.615871, 0.307438), (0.618074, 0.299197), (0.384129, 0.307438), (0.371749, 0.311636), (0.364449, 0.300507), (0.381926, 0.299197), (0.628251, 0.311636), (0.606163, 0.325516), (0.598424, 0.313725), (0.615871, 0.307438), (0.401576, 0.313725), (0.393837, 0.325516), (0.371749, 0.311636), (0.384129, 0.307438), (0.606163, 0.325516), (0.592090, 0.332885), (0.590828, 0.319797), (0.598424, 0.313725), (0.409172, 0.319797), (0.407910, 0.332885), (0.393837, 0.325516), (0.401576, 0.313725), (0.592090, 0.332885), (0.579057, 0.335646), (0.582130, 0.320991), (0.590828, 0.319797), (0.417870, 0.320991), (0.420943, 0.335646), (0.407910, 0.332885), (0.409172, 0.319797), (0.579057, 0.335646), (0.559135, 0.334326), (0.570458, 0.318697), (0.582130, 0.320991), (0.429542, 0.318697), (0.440865, 0.334326), (0.420943, 0.335646), (0.417870, 0.320991), (0.582130, 0.320991), (0.570458, 0.318697), (0.578615, 0.309394), (0.583998, 0.312892), (0.421385, 0.309394), (0.429542, 0.318697), (0.417870, 0.320991), (0.416002, 0.312892), (0.590828, 0.319797), (0.582130, 0.320991), (0.583998, 0.312892), (0.589656, 0.312336), (0.416002, 0.312892), (0.417870, 0.320991), (0.409172, 0.319797), (0.410344, 0.312336), (0.598424, 0.313725), (0.590828, 0.319797), (0.589656, 0.312336), (0.596347, 0.309249), (0.410344, 0.312336), (0.409172, 0.319797), (0.401576, 0.313725), (0.403653, 0.309249), (0.615871, 0.307438), (0.598424, 0.313725), (0.596347, 0.309249), (0.606014, 0.302517), (0.403653, 0.309249), (0.401576, 0.313725), (0.384129, 0.307438), (0.393986, 0.302517), (0.618074, 0.299197), (0.615871, 0.307438), (0.606014, 0.302517), (0.607735, 0.297520), (0.393986, 0.302517), (0.384129, 0.307438), (0.381926, 0.299197), (0.392265, 0.297520), (0.617110, 0.287175), (0.618074, 0.299197), (0.607735, 0.297520), (0.606985, 0.291216), (0.392265, 0.297520), (0.381926, 0.299197), (0.382890, 0.287175), (0.393015, 0.291216), (0.602190, 0.277180), (0.617110, 0.287175), (0.606985, 0.291216), (0.598275, 0.283083), (0.393015, 0.291216), (0.382890, 0.287175), (0.397810, 0.277180), (0.401725, 0.283083), (0.589914, 0.271772), (0.602190, 0.277180), (0.598275, 0.283083), (0.589866, 0.280167), (0.401725, 0.283083), (0.397810, 0.277180), (0.410086, 0.271772), (0.410134, 0.280167), (0.569243, 0.278245), (0.589914, 0.271772), (0.589866, 0.280167), (0.576352, 0.284624), (0.410134, 0.280167), (0.410086, 0.271772), (0.430757, 0.278245), (0.423648, 0.284624), (0.562361, 0.284338), (0.569243, 0.278245), (0.576352, 0.284624), (0.572831, 0.289915), (0.423648, 0.284624), (0.430757, 0.278245), (0.437639, 0.284338), (0.427169, 0.289915), (0.570458, 0.318697), (0.563180, 0.307151), (0.573307, 0.303342), (0.578615, 0.309394), (0.426693, 0.303342), (0.436820, 0.307151), (0.429542, 0.318697), (0.421385, 0.309394), (0.563180, 0.307151), (0.559190, 0.294882), (0.572447, 0.295716), (0.573307, 0.303342), (0.427553, 0.295716), (0.440810, 0.294882), (0.436820, 0.307151), (0.426693, 0.303342), (0.559190, 0.294882), (0.562361, 0.284338), (0.572831, 0.289915), (0.572447, 0.295716), (0.427169, 0.289915), (0.437639, 0.284338), (0.440810, 0.294882), (0.427553, 0.295716), (0.500000, 0.382860), (0.532016, 0.387365), (0.529647, 0.428636), (0.500000, 0.428636), (0.470353, 0.428636), (0.467984, 0.387365), (0.500000, 0.382860), (0.500000, 0.428636), (0.532016, 0.387365), (0.581044, 0.398468), (0.584616, 0.428636), (0.529647, 0.428636), (0.415384, 0.428636), (0.418956, 0.398468), (0.467984, 0.387365), (0.470353, 0.428636), (0.581044, 0.398468), (0.602261, 0.395588), (0.622301, 0.417889), (0.584616, 0.428636), (0.377699, 0.417889), (0.397739, 0.395588), (0.418956, 0.398468), (0.415384, 0.428636), (0.602261, 0.395588), (0.636775, 0.370732), (0.666214, 0.388954), (0.622301, 0.417889), (0.333786, 0.388954), (0.363225, 0.370732), (0.397739, 0.395588), (0.377699, 0.417889), (0.636775, 0.370732), (0.671357, 0.334694), (0.701481, 0.344467), (0.666214, 0.388954), (0.298519, 0.344467), (0.328643, 0.334694), (0.363225, 0.370732), (0.333786, 0.388954), (0.671357, 0.334694), (0.684517, 0.317795), (0.712163, 0.315527), (0.701481, 0.344467), (0.287837, 0.315527), (0.315483, 0.317795), (0.328643, 0.334694), (0.298519, 0.344467), (0.684517, 0.317795), (0.689501, 0.268805), (0.704305, 0.260225), (0.712163, 0.315527), (0.295695, 0.260225), (0.310499, 0.268805), (0.315483, 0.317795), (0.287837, 0.315527), (0.689501, 0.268805), (0.650908, 0.240294), (0.672947, 0.224880), (0.704305, 0.260225), (0.327053, 0.224880), (0.349092, 0.240294), (0.310499, 0.268805), (0.295695, 0.260225), (0.650908, 0.240294), (0.626605, 0.208159), (0.640497, 0.198841), (0.672947, 0.224880), (0.359503, 0.198841), (0.373395, 0.208159), (0.349092, 0.240294), (0.327053, 0.224880), (0.603553, 0.023452), (0.625128, 0.029461), (0.635753, 0.082198), (0.598617, 0.056841), (0.364247, 0.082198), (0.374872, 0.029461), (0.396447, 0.023452), (0.401383, 0.056841), (0.546781, 0.009442), (0.603553, 0.023452), (0.598617, 0.056841), (0.556354, 0.040906), (0.401383, 0.056841), (0.396447, 0.023452), (0.453219, 0.009442), (0.443646, 0.040906), (0.500000, 0.033223), (0.546781, 0.009442), (0.556354, 0.040906), (0.527159, 0.049514), (0.443646, 0.040906), (0.453219, 0.009442), (0.500000, 0.033223), (0.472841, 0.049514), (0.520711, 0.060503), (0.500000, 0.054411), (0.500000, 0.033223), (0.527159, 0.049514), (0.500000, 0.033223), (0.500000, 0.054411), (0.479289, 0.060503), (0.472841, 0.049514), (0.530457, 0.065062), (0.520711, 0.060503), (0.527159, 0.049514), (0.537222, 0.060794), (0.472841, 0.049514), (0.479289, 0.060503), (0.469543, 0.065062), (0.462778, 0.060794), (0.532878, 0.067822), (0.530457, 0.065062), (0.537222, 0.060794), (0.558499, 0.065137), (0.462778, 0.060794), (0.469543, 0.065062), (0.467122, 0.067822), (0.441501, 0.065137), (0.544695, 0.083023), (0.532878, 0.067822), (0.558499, 0.065137), (0.588127, 0.085177), (0.441501, 0.065137), (0.467122, 0.067822), (0.455305, 0.083023), (0.411873, 0.085177), (0.558499, 0.065137), (0.556354, 0.040906), (0.598617, 0.056841), (0.588127, 0.085177), (0.401383, 0.056841), (0.443646, 0.040906), (0.441501, 0.065137), (0.411873, 0.085177), (0.558499, 0.065137), (0.537222, 0.060794), (0.527159, 0.049514), (0.556354, 0.040906), (0.472841, 0.049514), (0.462778, 0.060794), (0.441501, 0.065137), (0.443646, 0.040906), (0.607239, 0.113940), (0.588127, 0.085177), (0.598617, 0.056841), (0.635753, 0.082198), (0.401383, 0.056841), (0.411873, 0.085177), (0.392761, 0.113940), (0.364247, 0.082198), (0.565647, 0.115495), (0.544695, 0.083023), (0.588127, 0.085177), (0.607239, 0.113940), (0.411873, 0.085177), (0.455305, 0.083023), (0.434353, 0.115495), (0.392761, 0.113940), (0.578661, 0.139176), (0.612663, 0.133675), (0.605467, 0.151503), (0.583245, 0.154155), (0.394533, 0.151503), (0.387337, 0.133675), (0.421339, 0.139176), (0.416755, 0.154155), (0.565647, 0.115495), (0.607239, 0.113940), (0.612663, 0.133675), (0.578661, 0.139176), (0.387337, 0.133675), (0.392761, 0.113940), (0.434353, 0.115495), (0.421339, 0.139176), (0.586916, 0.172042), (0.583245, 0.154155), (0.605467, 0.151503), (0.600708, 0.162985), (0.394533, 0.151503), (0.416755, 0.154155), (0.413084, 0.172042), (0.399292, 0.162985), (0.586916, 0.172042), (0.600708, 0.162985), (0.640497, 0.198841), (0.626605, 0.208159), (0.359503, 0.198841), (0.399292, 0.162985), (0.413084, 0.172042), (0.373395, 0.208159), (0.922374, 0.064228), (0.859647, 0.117994), (0.823287, 0.101559), (0.861342, 0.027230), (0.176713, 0.101559), (0.140353, 0.117994), (0.077626, 0.064228), (0.138658, 0.027230), (0.861342, 0.027230), (0.823287, 0.101559), (0.765863, 0.087001), (0.774604, 0.010837), (0.234137, 0.087001), (0.176713, 0.101559), (0.138658, 0.027230), (0.225396, 0.010837), (0.774604, 0.010837), (0.765863, 0.087001), (0.661952, 0.087561), (0.647010, 0.028716), (0.338048, 0.087561), (0.234137, 0.087001), (0.225396, 0.010837), (0.352990, 0.028716), (0.647010, 0.028716), (0.661952, 0.087561), (0.635753, 0.082198), (0.625128, 0.029461), (0.364247, 0.082198), (0.338048, 0.087561), (0.352990, 0.028716), (0.374872, 0.029461), (0.607239, 0.113940), (0.635753, 0.082198), (0.661952, 0.087561), (0.612663, 0.133675), (0.338048, 0.087561), (0.364247, 0.082198), (0.392761, 0.113940), (0.387337, 0.133675), (0.704305, 0.260225), (0.672947, 0.224880), (0.743592, 0.198572), (0.766410, 0.233065), (0.256408, 0.198572), (0.327053, 0.224880), (0.295695, 0.260225), (0.233590, 0.233065), (0.987633, 0.154243), (0.889478, 0.177602), (0.859647, 0.117994), (0.922374, 0.064228), (0.140353, 0.117994), (0.110522, 0.177602), (0.012367, 0.154243), (0.077626, 0.064228), (0.899807, 0.420886), (0.844317, 0.347370), (0.881169, 0.309153), (0.958963, 0.357385), (0.118831, 0.309153), (0.155683, 0.347370), (0.100193, 0.420886), (0.041037, 0.357385), (0.958963, 0.357385), (0.881169, 0.309153), (0.903302, 0.261367), (0.999860, 0.253531), (0.096698, 0.261367), (0.118831, 0.309153), (0.041037, 0.357385), (0.000140, 0.253531), (0.999860, 0.253531), (0.903302, 0.261367), (0.889478, 0.177602), (0.987633, 0.154243), (0.110522, 0.177602), (0.096698, 0.261367), (0.000140, 0.253531), (0.012367, 0.154243), (0.724763, 0.340212), (0.712163, 0.315527), (0.744725, 0.304629), (0.766113, 0.319494), (0.255275, 0.304629), (0.287837, 0.315527), (0.275237, 0.340212), (0.233887, 0.319494), (0.766113, 0.319494), (0.744725, 0.304629), (0.793427, 0.280495), (0.826663, 0.297810), (0.206573, 0.280495), (0.255275, 0.304629), (0.233887, 0.319494), (0.173337, 0.297810), (0.826663, 0.297810), (0.793427, 0.280495), (0.823620, 0.254612), (0.855331, 0.267956), (0.176380, 0.254612), (0.206573, 0.280495), (0.173337, 0.297810), (0.144669, 0.267956), (0.855331, 0.267956), (0.823620, 0.254612), (0.835860, 0.225225), (0.868309, 0.233525), (0.164140, 0.225225), (0.176380, 0.254612), (0.144669, 0.267956), (0.131691, 0.233525), (0.813499, 0.190705), (0.851288, 0.181145), (0.868309, 0.233525), (0.835860, 0.225225), (0.131691, 0.233525), (0.148712, 0.181145), (0.186501, 0.190705), (0.164140, 0.225225), (0.889478, 0.177602), (0.903302, 0.261367), (0.868309, 0.233525), (0.851288, 0.181145), (0.131691, 0.233525), (0.096698, 0.261367), (0.110522, 0.177602), (0.148712, 0.181145), (0.903302, 0.261367), (0.881169, 0.309153), (0.855331, 0.267956), (0.868309, 0.233525), (0.144669, 0.267956), (0.118831, 0.309153), (0.096698, 0.261367), (0.131691, 0.233525), (0.881169, 0.309153), (0.844317, 0.347370), (0.826663, 0.297810), (0.855331, 0.267956), (0.173337, 0.297810), (0.155683, 0.347370), (0.118831, 0.309153), (0.144669, 0.267956), (0.844317, 0.347370), (0.772263, 0.374010), (0.766113, 0.319494), (0.826663, 0.297810), (0.233887, 0.319494), (0.227737, 0.374010), (0.155683, 0.347370), (0.173337, 0.297810), (0.744519, 0.390057), (0.724763, 0.340212), (0.766113, 0.319494), (0.772263, 0.374010), (0.233887, 0.319494), (0.275237, 0.340212), (0.255481, 0.390057), (0.227737, 0.374010), (0.824765, 0.470987), (0.772263, 0.374010), (0.844317, 0.347370), (0.899807, 0.420886), (0.155683, 0.347370), (0.227737, 0.374010), (0.175235, 0.470987), (0.100193, 0.420886), (0.792141, 0.464714), (0.742181, 0.461543), (0.726855, 0.432574), (0.744519, 0.390057), (0.273145, 0.432574), (0.257819, 0.461543), (0.207859, 0.464714), (0.255481, 0.390057), (0.792141, 0.464714), (0.744519, 0.390057), (0.772263, 0.374010), (0.824765, 0.470987), (0.227737, 0.374010), (0.255481, 0.390057), (0.207859, 0.464714), (0.175235, 0.470987), (0.795638, 0.489991), (0.792141, 0.464714), (0.824765, 0.470987), (0.175235, 0.470987), (0.207859, 0.464714), (0.204362, 0.489991), (0.712163, 0.315527), (0.704305, 0.260225), (0.766410, 0.233065), (0.744725, 0.304629), (0.233590, 0.233065), (0.295695, 0.260225), (0.287837, 0.315527), (0.255275, 0.304629), (0.766410, 0.233065), (0.786137, 0.227788), (0.793427, 0.280495), (0.744725, 0.304629), (0.206573, 0.280495), (0.213863, 0.227788), (0.233590, 0.233065), (0.255275, 0.304629), (0.786137, 0.227788), (0.802950, 0.203415), (0.823620, 0.254612), (0.793427, 0.280495), (0.176380, 0.254612), (0.197050, 0.203415), (0.213863, 0.227788), (0.206573, 0.280495), (0.813499, 0.190705), (0.835860, 0.225225), (0.823620, 0.254612), (0.802950, 0.203415), (0.176380, 0.254612), (0.164140, 0.225225), (0.186501, 0.190705), (0.197050, 0.203415), (0.661952, 0.087561), (0.765863, 0.087001), (0.769334, 0.128771), (0.691484, 0.146686), (0.230666, 0.128771), (0.234137, 0.087001), (0.338048, 0.087561), (0.308516, 0.146686), (0.743592, 0.198572), (0.691484, 0.146686), (0.769334, 0.128771), (0.780113, 0.169386), (0.230666, 0.128771), (0.308516, 0.146686), (0.256408, 0.198572), (0.219887, 0.169386), (0.672947, 0.224880), (0.640497, 0.198841), (0.691484, 0.146686), (0.743592, 0.198572), (0.308516, 0.146686), (0.359503, 0.198841), (0.327053, 0.224880), (0.256408, 0.198572), (0.640497, 0.198841), (0.605467, 0.151503), (0.612663, 0.133675), (0.691484, 0.146686), (0.387337, 0.133675), (0.394533, 0.151503), (0.359503, 0.198841), (0.308516, 0.146686), (0.612663, 0.133675), (0.661952, 0.087561), (0.691484, 0.146686), (0.308516, 0.146686), (0.338048, 0.087561), (0.387337, 0.133675), (0.640497, 0.198841), (0.600708, 0.162985), (0.605467, 0.151503), (0.394533, 0.151503), (0.399292, 0.162985), (0.359503, 0.198841), (0.813499, 0.190705), (0.803789, 0.171181), (0.830917, 0.139518), (0.851288, 0.181145), (0.169083, 0.139518), (0.196211, 0.171181), (0.186501, 0.190705), (0.148712, 0.181145), (0.889478, 0.177602), (0.851288, 0.181145), (0.830917, 0.139518), (0.859647, 0.117994), (0.169083, 0.139518), (0.148712, 0.181145), (0.110522, 0.177602), (0.140353, 0.117994), (0.780113, 0.169386), (0.769334, 0.128771), (0.830917, 0.139518), (0.803789, 0.171181), (0.169083, 0.139518), (0.230666, 0.128771), (0.219887, 0.169386), (0.196211, 0.171181), (0.765863, 0.087001), (0.823287, 0.101559), (0.830917, 0.139518), (0.769334, 0.128771), (0.169083, 0.139518), (0.176713, 0.101559), (0.234137, 0.087001), (0.230666, 0.128771), (0.859647, 0.117994), (0.830917, 0.139518), (0.823287, 0.101559), (0.176713, 0.101559), (0.169083, 0.139518), (0.140353, 0.117994), (0.574628, 0.959188), (0.464516, 0.959188), (0.477326, 0.891852), (0.545439, 0.884582), (0.272900, 0.891852), (0.285710, 0.959188), (0.175598, 0.959188), (0.204787, 0.884582), (0.574628, 0.959188), (0.545439, 0.884582), (0.605134, 0.846978), (0.715894, 0.897069), (0.145092, 0.846978), (0.204787, 0.884582), (0.175598, 0.959188), (0.034332, 0.897069), (0.715894, 0.897069), (0.605134, 0.846978), (0.605360, 0.784410), (0.683874, 0.757011), (0.144866, 0.784410), (0.145092, 0.846978), (0.034332, 0.897069), (0.066352, 0.757011), (0.683874, 0.757011), (0.605360, 0.784410), (0.574835, 0.744212), (0.617867, 0.719156), (0.175391, 0.744212), (0.144866, 0.784410), (0.066352, 0.757011), (0.132359, 0.719156), (0.617867, 0.719156), (0.574835, 0.744212), (0.534996, 0.712528), (0.568728, 0.682132), (0.215230, 0.712528), (0.175391, 0.744212), (0.132359, 0.719156), (0.181498, 0.682132), (0.568728, 0.682132), (0.534996, 0.712528), (0.483006, 0.686791), (0.508539, 0.641024), (0.267220, 0.686791), (0.215230, 0.712528), (0.181498, 0.682132), (0.241687, 0.641024), (0.534996, 0.712528), (0.513415, 0.736977), (0.478880, 0.719593), (0.483006, 0.686791), (0.271346, 0.719593), (0.236811, 0.736977), (0.215230, 0.712528), (0.267220, 0.686791), (0.574835, 0.744212), (0.541117, 0.760754), (0.513415, 0.736977), (0.534996, 0.712528), (0.236811, 0.736977), (0.209109, 0.760754), (0.175391, 0.744212), (0.215230, 0.712528), (0.605360, 0.784410), (0.557599, 0.789442), (0.541117, 0.760754), (0.574835, 0.744212), (0.209109, 0.760754), (0.192627, 0.789442), (0.144866, 0.784410), (0.175391, 0.744212), (0.605134, 0.846978), (0.553841, 0.821849), (0.557599, 0.789442), (0.605360, 0.784410), (0.192627, 0.789442), (0.196385, 0.821849), (0.145092, 0.846978), (0.144866, 0.784410), (0.545439, 0.884582), (0.524671, 0.842380), (0.553841, 0.821849), (0.605134, 0.846978), (0.196385, 0.821849), (0.225555, 0.842380), (0.204787, 0.884582), (0.145092, 0.846978), (0.545439, 0.884582), (0.477326, 0.891852), (0.485193, 0.845321), (0.524671, 0.842380), (0.265033, 0.845321), (0.272900, 0.891852), (0.204787, 0.884582), (0.225555, 0.842380), (0.743592, 0.198572), (0.780113, 0.169386), (0.786150, 0.181127), (0.770208, 0.191225), (0.213850, 0.181127), (0.219887, 0.169386), (0.256408, 0.198572), (0.229792, 0.191225), (0.408153, 0.587507), (0.508539, 0.641024), (0.483006, 0.686791), (0.409610, 0.674022), (0.267220, 0.686791), (0.241687, 0.641024), (0.342073, 0.587507), (0.340616, 0.674022), (0.766410, 0.233065), (0.743592, 0.198572), (0.770208, 0.191225), (0.786137, 0.227788), (0.229792, 0.191225), (0.256408, 0.198572), (0.233590, 0.233065), (0.213863, 0.227788), (0.400301, 0.910556), (0.414155, 0.878318), (0.477326, 0.891852), (0.464516, 0.959188), (0.272900, 0.891852), (0.336071, 0.878318), (0.349925, 0.910556), (0.285710, 0.959188), (0.483006, 0.686791), (0.478880, 0.719593), (0.443630, 0.713731), (0.409610, 0.674022), (0.306596, 0.713731), (0.271346, 0.719593), (0.267220, 0.686791), (0.340616, 0.674022), (0.429725, 0.728622), (0.392812, 0.710774), (0.409610, 0.674022), (0.443630, 0.713731), (0.340616, 0.674022), (0.357414, 0.710774), (0.320501, 0.728622), (0.306596, 0.713731), (0.422979, 0.754609), (0.392812, 0.710774), (0.429725, 0.728622), (0.432640, 0.746527), (0.320501, 0.728622), (0.357414, 0.710774), (0.327247, 0.754609), (0.317586, 0.746527), (0.427719, 0.796173), (0.391578, 0.815187), (0.392812, 0.710774), (0.422979, 0.754609), (0.357414, 0.710774), (0.358648, 0.815187), (0.322507, 0.796173), (0.327247, 0.754609), (0.414155, 0.878318), (0.391578, 0.815187), (0.427719, 0.796173), (0.448277, 0.830976), (0.322507, 0.796173), (0.358648, 0.815187), (0.336071, 0.878318), (0.301949, 0.830976), (0.477326, 0.891852), (0.414155, 0.878318), (0.448277, 0.830976), (0.485193, 0.845321), (0.301949, 0.830976), (0.336071, 0.878318), (0.272900, 0.891852), (0.265033, 0.845321), (0.786137, 0.227788), (0.797710, 0.195652), (0.802580, 0.199758), (0.802950, 0.203415), (0.197420, 0.199758), (0.202290, 0.195652), (0.213863, 0.227788), (0.197050, 0.203415), (0.786137, 0.227788), (0.770208, 0.191225), (0.789609, 0.184671), (0.797710, 0.195652), (0.210391, 0.184671), (0.229792, 0.191225), (0.213863, 0.227788), (0.202290, 0.195652), (0.770208, 0.191225), (0.786150, 0.181127), (0.789609, 0.184671), (0.210391, 0.184671), (0.213850, 0.181127), (0.229792, 0.191225), (0.485193, 0.845321), (0.448277, 0.830976), (0.466042, 0.804091), (0.490498, 0.816075), (0.284184, 0.804091), (0.301949, 0.830976), (0.265033, 0.845321), (0.259728, 0.816075), (0.448277, 0.830976), (0.427719, 0.796173), (0.448042, 0.783921), (0.466042, 0.804091), (0.302184, 0.783921), (0.322507, 0.796173), (0.301949, 0.830976), (0.284184, 0.804091), (0.427719, 0.796173), (0.422979, 0.754609), (0.438745, 0.764960), (0.448042, 0.783921), (0.311481, 0.764960), (0.327247, 0.754609), (0.322507, 0.796173), (0.302184, 0.783921), (0.422979, 0.754609), (0.432640, 0.746527), (0.445216, 0.756351), (0.438745, 0.764960), (0.305010, 0.756351), (0.317586, 0.746527), (0.327247, 0.754609), (0.311481, 0.764960), (0.432640, 0.746527), (0.429725, 0.728622), (0.449819, 0.743458), (0.445216, 0.756351), (0.300407, 0.743458), (0.320501, 0.728622), (0.317586, 0.746527), (0.305010, 0.756351), (0.429725, 0.728622), (0.443630, 0.713731), (0.456307, 0.732687), (0.449819, 0.743458), (0.293919, 0.732687), (0.306596, 0.713731), (0.320501, 0.728622), (0.300407, 0.743458), (0.443630, 0.713731), (0.478880, 0.719593), (0.475471, 0.740871), (0.456307, 0.732687), (0.274755, 0.740871), (0.271346, 0.719593), (0.306596, 0.713731), (0.293919, 0.732687), (0.524671, 0.842380), (0.485193, 0.845321), (0.490498, 0.816075), (0.514211, 0.817769), (0.259728, 0.816075), (0.265033, 0.845321), (0.225555, 0.842380), (0.236015, 0.817769), (0.553841, 0.821849), (0.524671, 0.842380), (0.514211, 0.817769), (0.527961, 0.808598), (0.236015, 0.817769), (0.225555, 0.842380), (0.196385, 0.821849), (0.222265, 0.808598), (0.557599, 0.789442), (0.553841, 0.821849), (0.527961, 0.808598), (0.530079, 0.790754), (0.222265, 0.808598), (0.196385, 0.821849), (0.192627, 0.789442), (0.220147, 0.790754), (0.541117, 0.760754), (0.557599, 0.789442), (0.530079, 0.790754), (0.518620, 0.772385), (0.220147, 0.790754), (0.192627, 0.789442), (0.209109, 0.760754), (0.231606, 0.772385), (0.513415, 0.736977), (0.541117, 0.760754), (0.518620, 0.772385), (0.498668, 0.755033), (0.231606, 0.772385), (0.209109, 0.760754), (0.236811, 0.736977), (0.251558, 0.755033), (0.478880, 0.719593), (0.513415, 0.736977), (0.498668, 0.755033), (0.475471, 0.740871), (0.251558, 0.755033), (0.236811, 0.736977), (0.271346, 0.719593), (0.274755, 0.740871), (0.445216, 0.756351), (0.449819, 0.743458), (0.468029, 0.756171), (0.459660, 0.770459), (0.282197, 0.756171), (0.300407, 0.743458), (0.305010, 0.756351), (0.290566, 0.770459), (0.459660, 0.770459), (0.468029, 0.756171), (0.487167, 0.769899), (0.477354, 0.785393), (0.263059, 0.769899), (0.282197, 0.756171), (0.290566, 0.770459), (0.272872, 0.785393), (0.477354, 0.785393), (0.487167, 0.769899), (0.504617, 0.782999), (0.496545, 0.797122), (0.245609, 0.782999), (0.263059, 0.769899), (0.272872, 0.785393), (0.253681, 0.797122), (0.496545, 0.797122), (0.504617, 0.782999), (0.516137, 0.792591), (0.513713, 0.804019), (0.234089, 0.792591), (0.245609, 0.782999), (0.253681, 0.797122), (0.236513, 0.804019), (0.514211, 0.817769), (0.490498, 0.816075), (0.496545, 0.797122), (0.513713, 0.804019), (0.253681, 0.797122), (0.259728, 0.816075), (0.236015, 0.817769), (0.236513, 0.804019), (0.466042, 0.804091), (0.477354, 0.785393), (0.496545, 0.797122), (0.490498, 0.816075), (0.253681, 0.797122), (0.272872, 0.785393), (0.284184, 0.804091), (0.259728, 0.816075), (0.466042, 0.804091), (0.448042, 0.783921), (0.459660, 0.770459), (0.477354, 0.785393), (0.290566, 0.770459), (0.302184, 0.783921), (0.284184, 0.804091), (0.272872, 0.785393), (0.445216, 0.756351), (0.459660, 0.770459), (0.448042, 0.783921), (0.438745, 0.764960), (0.302184, 0.783921), (0.290566, 0.770459), (0.305010, 0.756351), (0.311481, 0.764960), (0.456307, 0.732687), (0.475471, 0.740871), (0.468029, 0.756171), (0.449819, 0.743458), (0.282197, 0.756171), (0.274755, 0.740871), (0.293919, 0.732687), (0.300407, 0.743458), (0.498668, 0.755033), (0.487167, 0.769899), (0.468029, 0.756171), (0.475471, 0.740871), (0.282197, 0.756171), (0.263059, 0.769899), (0.251558, 0.755033), (0.274755, 0.740871), (0.518620, 0.772385), (0.504617, 0.782999), (0.487167, 0.769899), (0.498668, 0.755033), (0.263059, 0.769899), (0.245609, 0.782999), (0.231606, 0.772385), (0.251558, 0.755033), (0.530079, 0.790754), (0.516137, 0.792591), (0.504617, 0.782999), (0.518620, 0.772385), (0.245609, 0.782999), (0.234089, 0.792591), (0.220147, 0.790754), (0.231606, 0.772385), (0.527961, 0.808598), (0.513713, 0.804019), (0.516137, 0.792591), (0.530079, 0.790754), (0.234089, 0.792591), (0.236513, 0.804019), (0.222265, 0.808598), (0.220147, 0.790754), (0.514211, 0.817769), (0.513713, 0.804019), (0.527961, 0.808598), (0.222265, 0.808598), (0.236513, 0.804019), (0.236015, 0.817769), (0.568728, 0.682132), (0.508539, 0.641024), (0.574269, 0.607668), (0.613510, 0.655816), (0.175957, 0.607668), (0.241687, 0.641024), (0.181498, 0.682132), (0.136716, 0.655816), (0.617867, 0.719156), (0.568728, 0.682132), (0.613510, 0.655816), (0.644031, 0.693270), (0.136716, 0.655816), (0.181498, 0.682132), (0.132359, 0.719156), (0.106195, 0.693270), (0.683874, 0.757011), (0.617867, 0.719156), (0.644031, 0.693270), (0.668163, 0.712097), (0.106195, 0.693270), (0.132359, 0.719156), (0.066352, 0.757011), (0.082063, 0.712097), (0.727131, 0.698475), (0.683874, 0.757011), (0.668163, 0.712097), (0.676584, 0.686010), (0.082063, 0.712097), (0.066352, 0.757011), (0.023095, 0.698475), (0.073642, 0.686010), (0.729804, 0.624370), (0.727131, 0.698475), (0.676584, 0.686010), (0.667013, 0.640198), (0.073642, 0.686010), (0.023095, 0.698475), (0.020422, 0.624370), (0.083213, 0.640198), (0.721292, 0.572934), (0.729804, 0.624370), (0.667013, 0.640198), (0.648152, 0.594596), (0.083213, 0.640198), (0.020422, 0.624370), (0.028934, 0.572934), (0.102074, 0.594596), (0.667013, 0.640198), (0.613510, 0.655816), (0.574269, 0.607668), (0.648152, 0.594596), (0.175957, 0.607668), (0.136716, 0.655816), (0.083213, 0.640198), (0.102074, 0.594596), (0.667013, 0.640198), (0.676584, 0.686010), (0.644031, 0.693270), (0.613510, 0.655816), (0.106195, 0.693270), (0.073642, 0.686010), (0.083213, 0.640198), (0.136716, 0.655816), (0.676584, 0.686010), (0.668163, 0.712097), (0.644031, 0.693270), (0.106195, 0.693270), (0.082063, 0.712097), (0.073642, 0.686010), (0.630034, 0.557583), (0.717709, 0.538143), (0.721292, 0.572934), (0.648152, 0.594596), (0.028934, 0.572934), (0.032517, 0.538143), (0.120192, 0.557583), (0.102074, 0.594596), (0.630034, 0.557583), (0.648152, 0.594596), (0.574269, 0.607668), (0.526877, 0.539235), (0.175957, 0.607668), (0.102074, 0.594596), (0.120192, 0.557583), (0.223349, 0.539235), (0.408153, 0.587507), (0.526877, 0.539235), (0.574269, 0.607668), (0.508539, 0.641024), (0.175957, 0.607668), (0.223349, 0.539235), (0.342073, 0.587507), (0.241687, 0.641024), (0.597222, 0.000000), (0.625000, 0.000000), (0.625000, 0.250000), (0.597222, 0.250000), (0.597222, 0.250000), (0.625000, 0.250000), (0.625000, 0.500000), (0.597222, 0.500000), (0.597222, 0.500000), (0.625000, 0.500000), (0.625000, 0.750000), (0.597222, 0.750000), (0.597222, 0.750000), (0.625000, 0.750000), (0.625000, 1.000000), (0.597222, 1.000000), (0.125000, 0.500000), (0.375000, 0.500000), (0.375000, 0.750000), (0.125000, 0.750000), (0.625000, 0.500000), (0.875000, 0.500000), (0.875000, 0.750000), (0.625000, 0.750000), (0.375000, 0.750000), (0.402778, 0.750000), (0.402778, 1.000000), (0.375000, 1.000000), (0.402778, 0.750000), (0.430556, 0.750000), (0.430556, 1.000000), (0.402778, 1.000000), (0.430556, 0.750000), (0.458333, 0.750000), (0.458333, 1.000000), (0.430556, 1.000000), (0.458333, 0.750000), (0.486111, 0.750000), (0.486111, 1.000000), (0.458333, 1.000000), (0.486111, 0.750000), (0.513889, 0.750000), (0.513889, 1.000000), (0.486111, 1.000000), (0.513889, 0.750000), (0.541667, 0.750000), (0.541667, 1.000000), (0.513889, 1.000000), (0.541667, 0.750000), (0.569444, 0.750000), (0.569444, 1.000000), (0.541667, 1.000000), (0.569444, 0.750000), (0.597222, 0.750000), (0.597222, 1.000000), (0.569444, 1.000000), (0.375000, 0.500000), (0.402778, 0.500000), (0.402778, 0.750000), (0.375000, 0.750000), (0.402778, 0.500000), (0.430556, 0.500000), (0.430556, 0.750000), (0.402778, 0.750000), (0.430556, 0.500000), (0.458333, 0.500000), (0.458333, 0.750000), (0.430556, 0.750000), (0.458333, 0.500000), (0.486111, 0.500000), (0.486111, 0.750000), (0.458333, 0.750000), (0.486111, 0.500000), (0.513889, 0.500000), (0.513889, 0.750000), (0.486111, 0.750000), (0.513889, 0.500000), (0.541667, 0.500000), (0.541667, 0.750000), (0.513889, 0.750000), (0.541667, 0.500000), (0.569444, 0.500000), (0.569444, 0.750000), (0.541667, 0.750000), (0.569444, 0.500000), (0.597222, 0.500000), (0.597222, 0.750000), (0.569444, 0.750000), (0.375000, 0.250000), (0.402778, 0.250000), (0.402778, 0.500000), (0.375000, 0.500000), (0.402778, 0.250000), (0.430556, 0.250000), (0.430556, 0.500000), (0.402778, 0.500000), (0.430556, 0.250000), (0.458333, 0.250000), (0.458333, 0.500000), (0.430556, 0.500000), (0.458333, 0.250000), (0.486111, 0.250000), (0.486111, 0.500000), (0.458333, 0.500000), (0.486111, 0.250000), (0.513889, 0.250000), (0.513889, 0.500000), (0.486111, 0.500000), (0.513889, 0.250000), (0.541667, 0.250000), (0.541667, 0.500000), (0.513889, 0.500000), (0.541667, 0.250000), (0.569444, 0.250000), (0.569444, 0.500000), (0.541667, 0.500000), (0.569444, 0.250000), (0.597222, 0.250000), (0.597222, 0.500000), (0.569444, 0.500000), (0.375000, 0.000000), (0.402778, 0.000000), (0.402778, 0.250000), (0.375000, 0.250000), (0.402778, 0.000000), (0.430556, 0.000000), (0.430556, 0.250000), (0.402778, 0.250000), (0.430556, 0.000000), (0.458333, 0.000000), (0.458333, 0.250000), (0.430556, 0.250000), (0.458333, 0.000000), (0.486111, 0.000000), (0.486111, 0.250000), (0.458333, 0.250000), (0.486111, 0.000000), (0.513889, 0.000000), (0.513889, 0.250000), (0.486111, 0.250000), (0.513889, 0.000000), (0.541667, 0.000000), (0.541667, 0.250000), (0.513889, 0.250000), (0.541667, 0.000000), (0.569444, 0.000000), (0.569444, 0.250000), (0.541667, 0.250000), (0.569444, 0.000000), (0.597222, 0.000000), (0.597222, 0.250000), (0.569444, 0.250000)]
        uniform token primvars:UVMap:interpolation = "faceVarying"

        rel material:binding = </Suzanne/Materials/Material_001>

        def GeomSubset "mat_Material_001"
        (
            prepend apiSchemas = ["MaterialBindingAPI"]
        )
        {
            uniform token elementType = "face"
            uniform token familyName = "materialBind"
            int[] indices = [64, 65, 66, 67, 68, 69, 70, 71, 72, 73, 74, 75, 76, 77, 78, 79, 80, 81, 82, 83, 84, 85, 86, 87, 88, 89, 90, 91, 92, 93, 94, 95, 96, 97, 98, 99, 100, 101, 102, 103, 104, 105, 106, 107, 108, 109, 110, 111, 112, 113, 114, 115, 116, 117, 118, 119, 120, 121, 122, 123, 124, 125, 126, 127, 128, 129, 130, 131, 132, 133, 134, 135, 136, 137, 138, 139, 140, 141, 142, 143, 144, 145, 146, 147, 148, 149, 150, 151, 152, 153, 154, 155, 156, 157, 158, 159, 160, 161, 162, 163, 164, 165, 166, 167, 168, 169, 170, 171, 172, 173, 174, 175, 176, 177, 178, 179, 180, 181, 182, 183, 184, 185, 186, 187, 188, 189, 190, 191, 192, 193, 194, 195, 196, 197, 198, 199, 200, 201, 202, 203, 204, 205, 206, 207, 208, 209, 210, 211, 212, 213, 214, 215, 216, 217, 218, 219, 220, 221, 222, 223, 224, 225, 226, 227, 228, 229, 230, 231, 232, 233, 234, 235, 236, 237, 238, 239, 240, 241, 242, 243, 244, 245, 246, 247, 248, 249, 250, 251, 252, 253, 254, 255, 256, 257, 258, 259, 260, 261, 262, 263, 264, 265, 266, 267, 268, 269, 270, 271, 272, 273, 274, 275, 276, 277, 278, 279, 280, 281, 282, 283, 284, 285, 286, 287, 288, 289, 290, 291, 292, 293, 294, 295, 296, 297, 298, 299, 300, 301, 302, 303, 304, 305, 306, 307, 308, 309, 310, 311, 312, 313, 314, 315, 316, 317, 318, 319, 320, 321, 322, 323, 324, 325, 326, 327, 328, 329, 330, 331, 332, 333, 334, 335, 336, 337, 338, 339, 340, 341, 342, 343, 344, 345, 346, 347, 348, 349, 350, 351, 352, 353, 354, 355, 356, 357, 358, 359, 360, 361, 362, 363, 364, 365, 366, 367, 368, 369, 370, 371, 372, 373, 374, 375, 376, 377, 378, 379, 380, 381, 382, 383, 384, 385, 386, 387, 388, 389, 390, 391, 392, 393, 394, 395, 396, 397, 398, 399, 400, 401, 402, 403, 404, 405, 406, 407, 408, 409, 410, 411, 412, 413, 414, 415, 416, 417, 418, 419, 420, 421, 422, 423, 424, 425, 426, 427, 428, 429, 430, 431, 432, 433, 434, 435, 436, 437, 438, 439, 440, 441, 442, 443, 444, 445, 446, 447, 448, 449, 450, 451, 452, 453, 454, 455, 456, 457, 458, 459, 460, 461, 462, 463, 464, 465, 466, 467, 468, 469, 470, 471, 472, 473, 474, 475, 476, 477, 478, 479, 480, 481, 482, 483, 484, 485, 486, 487, 488, 489, 490, 491, 492, 493, 494, 495, 496, 497, 498, 499]
            rel material:binding = </Suzanne/Materials/Material_001>
        }
        def GeomSubset "mat_Material_002"
        (
            prepend apiSchemas = ["MaterialBindingAPI"]
        )
        {
            uniform token elementType = "face"
            uniform token familyName = "materialBind"
            int[] indices = [0, 1, 2, 3, 4, 5, 6, 7, 8, 9, 10, 11, 12, 13, 14, 15, 16, 17, 18, 19, 20, 21, 22, 23, 24, 25, 26, 27, 28, 29, 30, 31, 32, 33, 34, 35, 36, 37, 38, 39, 40, 41, 42, 43, 44, 45, 46, 47, 48, 49, 50, 51, 52, 53, 54, 55, 56, 57, 58, 59, 60, 61, 62, 63]
            rel material:binding = </Suzanne/Materials/Material_002>
        }
        def GeomSubset "mat_Material_003"
        (
            prepend apiSchemas = ["MaterialBindingAPI"]
        )
        {
            uniform token elementType = "face"
            uniform token familyName = "materialBind"
            int[] indices = [500, 501, 502, 503, 504, 505, 506, 507, 508, 509, 510, 511, 512, 513, 514, 515, 516, 517, 518, 519, 520, 521, 522, 523, 524, 525, 526, 527, 528, 529, 530, 531, 532, 533, 534, 535, 536, 537]
            rel material:binding = </Suzanne/Materials/Material_003>
        }
    }
}